<svg viewBox="0 0 318 321" fill="none" xmlns="http://www.w3.org/2000/svg">
<path fill-rule="evenodd" clip-rule="evenodd" d="M133 0C206.454 0 266 59.5461 266 133C266 165.961 254.008 196.119 234.151 219.355C234.356 219.535 234.556 219.722 234.751 219.917L309.072 294.238C313.997 299.163 313.997 307.148 309.072 312.072C304.148 316.997 296.163 316.997 291.238 312.072L216.917 237.751C216.627 237.461 216.354 237.159 216.098 236.849C193.332 255.089 164.441 266 133 266C59.5461 266 0 206.454 0 133C0 59.5461 59.5461 0 133 0ZM133 20C70.5918 20 20 70.5918 20 133C20 195.408 70.5918 246 133 246C195.408 246 246 195.408 246 133C246 70.5918 195.408 20 133 20Z" fill="#7C5A37"/>
<path d="M102.208 194.759C102.209 194.622 103.131 193.561 104.256 192.4C105.381 191.239 106.433 190.075 106.594 189.813C108.714 186.354 109.694 184.628 109.896 183.994C110.031 183.573 110.263 182.991 110.413 182.7C110.563 182.41 110.687 182.013 110.688 181.819C110.688 181.625 110.867 180.957 111.084 180.334C111.3 179.711 111.48 178.84 111.481 178.398C111.483 177.957 111.612 177.05 111.767 176.384C112.035 175.236 112.033 171.378 111.764 170.503C111.708 170.324 111.585 169.276 111.49 168.176C111.382 166.913 111.202 166.007 111.004 165.721C110.831 165.472 110.689 165.062 110.689 164.811C110.689 164.558 110.511 163.843 110.295 163.22C110.077 162.597 109.9 161.896 109.9 161.661C109.9 161.426 109.636 160.706 109.313 160.062C108.99 159.417 108.675 158.652 108.611 158.362C108.548 158.072 108.324 157.493 108.113 157.076C107.902 156.659 107.73 156.214 107.73 156.086C107.73 155.959 107.601 155.746 107.444 155.615C107.287 155.483 107.053 155.047 106.926 154.645C106.798 154.244 106.582 153.78 106.446 153.616C106.311 153.452 105.872 152.691 105.471 151.925C105.07 151.159 104.504 150.155 104.214 149.695C103.923 149.236 103.298 148.228 102.824 147.457C102.351 146.685 101.88 146.054 101.778 146.054C101.677 146.054 101.457 145.723 101.289 145.319C101.122 144.915 100.638 144.069 100.215 143.44C99.7907 142.81 99.4437 142.23 99.4437 142.15C99.4437 142.071 99.3196 141.865 99.1676 141.692C98.9212 141.412 98.4598 140.586 96.9642 137.751C96.7208 137.289 96.3351 136.672 96.1081 136.381C95.881 136.09 95.6952 135.77 95.6952 135.671C95.6952 135.57 95.4003 134.844 95.0394 134.055C94.6791 133.267 94.2656 132.309 94.1203 131.926C93.9756 131.543 93.6516 130.947 93.4003 130.603C93.1497 130.258 92.8554 129.632 92.7464 129.21C92.4976 128.245 91.4967 125.326 91.3235 125.058C91.2521 124.948 91.128 124.506 91.048 124.075C90.9675 123.644 90.7459 123.018 90.5552 122.683C90.3644 122.349 90.1495 121.672 90.0768 121.18C90.0042 120.687 89.7795 119.836 89.5773 119.289C88.904 117.465 88.0018 110.08 88 106.369C87.997 101.679 89.6118 92.5033 90.6418 91.3557C90.8167 91.1603 90.9602 90.8964 90.9602 90.7694C90.9602 90.0078 92.7089 86.1614 93.8557 84.4007C94.3249 83.68 94.7088 83.0113 94.7088 82.9142C94.7088 82.7248 95.8913 80.9574 96.1444 80.768C96.2286 80.7051 96.584 80.2055 96.9334 79.6583C97.7701 78.3483 102.081 73.5131 104.179 71.5313C105.703 70.0906 109.961 66.5636 110.788 66.0567C111.222 65.7904 112.065 65.2041 112.662 64.754C113.259 64.3045 114.324 63.585 115.03 63.1563C115.735 62.7272 116.4 62.2671 116.509 62.1337C116.618 62.0004 117.017 61.7516 117.397 61.5808C117.777 61.4101 118.443 61.0458 118.876 60.7714C119.31 60.497 119.971 60.1332 120.344 59.9628C120.716 59.7924 121.302 59.4373 121.645 59.1737C121.987 58.91 122.397 58.6944 122.555 58.6944C122.713 58.6944 122.926 58.6134 123.029 58.5144C123.399 58.1602 125.92 56.9034 126.261 56.9034C126.453 56.9034 127.001 56.6364 127.478 56.31C127.956 55.9836 128.463 55.715 128.605 55.713C128.886 55.7091 130.667 54.9356 131.838 54.3089C132.239 54.0942 132.761 53.9185 132.997 53.9185C133.368 53.9185 134.388 53.5084 137.287 52.1936C137.945 51.8955 138.507 51.948 138.507 52.3076C138.507 52.4135 137.876 53.0656 137.106 53.7565C132.718 57.6924 127.357 63.6461 126.075 66.006C125.911 66.3077 125.385 67.0888 124.904 67.7411C124.423 68.394 123.769 69.4237 123.449 70.0295C123.129 70.636 122.702 71.345 122.499 71.6064C122.297 71.8672 122.132 72.2361 122.132 72.4254C122.132 72.6147 121.967 72.983 121.764 73.2444C121.218 73.951 119.37 78.5059 119.37 79.1471C119.37 79.4537 119.194 80.051 118.98 80.4755C118.458 81.5076 117.878 83.9616 117.495 86.7532C117.323 88.012 117.097 89.5266 116.993 90.1196C116.746 91.5359 116.753 97.0746 117.005 98.5935C117.114 99.2501 117.343 101.129 117.514 102.769C117.686 104.408 117.906 105.901 118.004 106.085C118.102 106.27 118.27 107.041 118.376 107.797C118.483 108.553 118.748 109.567 118.965 110.052C119.183 110.535 119.363 111.216 119.365 111.564C119.368 111.912 119.586 112.898 119.851 113.753C120.116 114.609 120.574 116.115 120.87 117.1C121.165 118.085 121.561 119.115 121.75 119.388C121.938 119.662 122.15 120.284 122.219 120.772C122.289 121.258 122.432 121.761 122.536 121.888C122.64 122.014 122.894 122.601 123.101 123.191C123.895 125.461 124.136 126.032 124.495 126.493C124.699 126.755 124.929 127.256 125.005 127.606C125.081 127.957 125.31 128.556 125.512 128.938C125.715 129.319 125.88 129.705 125.88 129.795C125.88 129.977 126.784 132.047 127.071 132.522C127.36 133.004 128.542 135.499 129.143 136.901C129.448 137.612 129.849 138.373 130.035 138.592C130.221 138.811 130.436 139.213 130.514 139.487C130.592 139.761 130.818 140.271 131.017 140.621C131.215 140.97 131.61 141.904 131.893 142.696C132.176 143.488 132.614 144.545 132.865 145.045C134.187 147.672 134.847 149.475 135.057 151.037C135.123 151.525 135.387 152.418 135.643 153.019C135.899 153.621 136.352 155.184 136.65 156.491C137.166 158.757 137.19 159.101 137.178 163.854L137.164 168.84L136.541 170.73C136.197 171.77 135.745 172.985 135.535 173.429C135.325 173.874 135.153 174.406 135.153 174.61C135.153 175.076 134.429 176.627 133.886 177.328C133.66 177.618 133.21 178.327 132.884 178.905C132.342 179.865 128.632 184.054 128.155 184.243C127.89 184.348 126.399 185.541 125.342 186.495C124.884 186.908 124.34 187.246 124.134 187.246C123.927 187.246 123.637 187.395 123.488 187.576C123.339 187.757 122.995 188.005 122.724 188.128C122.453 188.251 121.715 188.662 121.084 189.043C119.237 190.157 119.095 190.226 118.656 190.229C118.427 190.231 118.028 190.398 117.769 190.602C117.51 190.806 116.366 191.261 115.227 191.614C114.087 191.968 112.71 192.473 112.166 192.737C111.622 193.001 110.937 193.217 110.645 193.217C110.352 193.217 109.659 193.397 109.105 193.617C108.551 193.837 107.318 194.153 106.364 194.319C105.411 194.485 104.33 194.708 103.962 194.814C103.034 195.083 102.205 195.057 102.208 194.759ZM142.207 189.986C142.163 189.851 142.85 189.023 143.735 188.145C146.133 185.77 147.794 183.787 148.568 182.379C148.948 181.688 149.622 180.463 150.065 179.658C150.508 178.851 151.071 177.431 151.315 176.501C151.56 175.57 151.905 174.362 152.081 173.815C152.5 172.515 152.661 166.337 152.31 164.982C152.18 164.477 151.959 163.213 151.821 162.173C151.523 159.941 150.751 156.865 150.172 155.606C149.946 155.113 149.759 154.484 149.756 154.208C149.754 153.931 149.63 153.528 149.481 153.312C149.142 152.821 148.271 150.602 147.989 149.51C147.872 149.058 147.65 148.582 147.495 148.451C147.34 148.322 147.151 147.934 147.076 147.588C147.001 147.243 146.729 146.624 146.471 146.212C146.214 145.801 146.003 145.309 146.003 145.117C146.003 144.925 145.834 144.319 145.627 143.77C144.597 141.038 144.238 139.9 144.121 138.99C144.051 138.443 143.902 137.882 143.788 137.743C143.676 137.605 143.54 136.486 143.486 135.257C143.303 131.062 144.515 127.722 147.283 124.795C148.15 123.878 149.143 122.981 149.489 122.801C153.482 120.725 155.089 120.01 156.002 119.9C156.564 119.832 157.408 119.608 157.876 119.403C158.345 119.198 159.283 118.967 159.962 118.891C161.45 118.724 161.568 118.982 160.416 119.886C159.999 120.215 159.5 120.752 159.308 121.08C159.117 121.409 158.714 121.996 158.413 122.385C158.113 122.775 157.804 123.357 157.726 123.679C157.649 124.001 157.376 124.671 157.122 125.168C156.795 125.806 156.59 126.708 156.424 128.234C156.222 130.107 156.236 130.693 156.535 132.604C156.854 134.651 157.099 135.447 158.078 137.627C158.282 138.081 158.531 138.708 158.631 139.02C159.189 140.762 159.603 141.738 159.951 142.131C160.166 142.373 160.639 143.154 161.003 143.865C161.367 144.577 161.909 145.607 162.209 146.154C162.508 146.701 162.909 147.462 163.1 147.845C163.291 148.229 163.562 148.682 163.7 148.854C163.97 149.187 164.644 151.028 164.96 152.292C165.065 152.713 165.37 153.473 165.639 153.982C165.907 154.49 166.127 155.187 166.127 155.529C166.127 155.871 166.319 156.723 166.554 157.421C166.939 158.564 166.983 159.128 166.998 163.069C167.012 166.709 166.959 167.597 166.683 168.342C166.501 168.835 166.252 169.745 166.13 170.366C166.008 170.988 165.783 171.6 165.63 171.728C165.478 171.855 165.179 172.428 164.967 172.999C164.349 174.666 163.597 175.82 161.53 178.27C159.99 180.097 156 183.724 155.075 184.138C154.802 184.261 154.358 184.521 154.089 184.716C152.991 185.513 152.083 186.052 150.9 186.614C150.214 186.939 148.611 187.707 147.337 188.32C146.063 188.934 144.95 189.436 144.863 189.436C144.777 189.436 144.358 189.615 143.932 189.834C143.055 190.285 142.327 190.349 142.207 189.986Z" fill="#7C5A37"/>
</svg>
