<svg width="632" height="704" viewBox="0 0 632 704" fill="none" xmlns="http://www.w3.org/2000/svg">
<rect width="632" height="704" fill="white"/>
<path d="M202.267 134.688L235.384 98.5125C238.177 95.6308 239.973 92.8157 240.771 90.067C241.569 87.3183 241.458 84.9022 240.438 82.8185C239.419 80.7348 237.535 79.294 234.786 78.496L232.392 78.0305C232.126 77.9418 231.926 77.8532 231.793 77.7645C231.705 77.6758 231.66 77.5428 231.66 77.3655C231.66 77.2325 231.705 77.1217 231.793 77.033C231.926 76.9443 232.082 76.9 232.259 76.9H262.649C262.827 76.9 262.96 76.9443 263.048 77.033C263.181 77.1217 263.248 77.2325 263.248 77.3655C263.248 77.5428 263.159 77.6758 262.982 77.7645C262.849 77.8532 262.694 77.9418 262.516 78.0305C261.275 78.4738 259.945 79.1167 258.526 79.959C257.152 80.757 255.512 81.8875 253.605 83.3505C251.743 84.8135 249.482 86.7642 246.822 89.2025C244.207 91.6408 241.015 94.7885 237.246 98.6455L202.866 136.018L202.267 134.688ZM214.171 122.053L231.062 105.362L260.255 162.951C261.319 165.079 262.25 166.586 263.048 167.473C263.891 168.315 265.066 168.803 266.573 168.936C266.795 168.98 266.95 169.047 267.038 169.135C267.171 169.224 267.238 169.335 267.238 169.468C267.238 169.645 267.171 169.778 267.038 169.867C266.905 169.956 266.728 170 266.506 170H230.064C229.843 170 229.665 169.956 229.532 169.867C229.444 169.734 229.399 169.579 229.399 169.401C229.399 169.224 229.466 169.113 229.599 169.069C229.732 168.98 229.909 168.914 230.131 168.869L234.254 168.271C234.875 168.182 235.274 167.85 235.451 167.273C235.673 166.653 235.407 165.589 234.653 164.081L214.171 122.053ZM206.124 166.209C206.124 166.741 206.346 167.163 206.789 167.473C207.277 167.739 207.986 167.961 208.917 168.138L213.439 168.869C213.794 168.914 214.038 168.98 214.171 169.069C214.304 169.158 214.37 169.291 214.37 169.468C214.37 169.601 214.304 169.734 214.171 169.867C214.082 169.956 213.905 170 213.639 170H175.002C174.736 170 174.537 169.956 174.404 169.867C174.271 169.734 174.204 169.601 174.204 169.468C174.204 169.202 174.537 169.002 175.202 168.869L179.724 168.138C180.655 168.005 181.342 167.783 181.785 167.473C182.273 167.163 182.517 166.741 182.517 166.209V80.6905C182.517 80.1585 182.273 79.7373 181.785 79.427C181.342 79.1167 180.655 78.895 179.724 78.762L175.202 78.0305C174.537 77.8975 174.204 77.698 174.204 77.432C174.204 77.299 174.271 77.1882 174.404 77.0995C174.537 76.9665 174.736 76.9 175.002 76.9H213.639C213.905 76.9 214.082 76.9665 214.171 77.0995C214.304 77.1882 214.37 77.299 214.37 77.432C214.37 77.698 214.06 77.8975 213.439 78.0305L208.917 78.762C207.986 78.895 207.277 79.1167 206.789 79.427C206.346 79.7373 206.124 80.1585 206.124 80.6905V166.209ZM303.093 163.815V163.017L302.162 163.948V118.263C302.162 115.869 301.608 114.029 300.499 112.743C299.435 111.413 297.994 110.748 296.177 110.748C294.004 110.748 292.364 111.325 291.256 112.477C290.147 113.63 289.593 115.049 289.593 116.733V122.918C289.593 125.534 288.618 127.795 286.667 129.701C284.761 131.563 282.3 132.494 279.286 132.494C277.158 132.494 275.407 131.895 274.032 130.698C272.702 129.457 272.037 127.595 272.037 125.112C272.037 122.718 273.035 120.347 275.03 117.997C277.025 115.603 279.995 113.608 283.941 112.012C287.886 110.416 292.785 109.618 298.637 109.618C306.529 109.618 312.425 111.214 316.326 114.406C320.272 117.554 322.245 122.076 322.245 127.972V161.621C322.245 162.951 322.489 163.926 322.976 164.547C323.508 165.123 324.129 165.411 324.838 165.411C325.548 165.411 326.213 165.168 326.833 164.68C327.498 164.192 327.919 163.328 328.097 162.086C328.141 161.865 328.185 161.732 328.23 161.688C328.318 161.643 328.407 161.621 328.496 161.621C328.584 161.621 328.651 161.643 328.695 161.688C328.784 161.732 328.828 161.865 328.828 162.086C328.828 163.017 328.363 164.214 327.432 165.677C326.545 167.096 325.06 168.382 322.976 169.534C320.937 170.687 318.144 171.264 314.597 171.264C310.519 171.264 307.57 170.554 305.753 169.135C303.979 167.672 303.093 165.899 303.093 163.815ZM268.513 156.899C268.513 151.801 270.619 147.767 274.83 144.796C279.086 141.782 286.002 140.274 295.578 140.274C297.972 140.274 299.879 140.518 301.297 141.006C302.76 141.449 304.112 142.07 305.354 142.868L304.755 143.4C303.47 142.735 302.184 142.247 300.898 141.937C299.657 141.627 298.26 141.471 296.709 141.471C294.049 141.471 291.987 142.535 290.524 144.663C289.061 146.791 288.33 149.917 288.33 154.04C288.33 157.986 289.061 160.912 290.524 162.818C291.987 164.724 293.871 165.677 296.177 165.677C297.595 165.677 299.014 165.278 300.433 164.48C301.896 163.638 303.071 162.552 303.957 161.222L304.822 161.688C302.96 164.791 300.322 167.163 296.908 168.803C293.495 170.443 289.815 171.264 285.869 171.264C280.815 171.264 276.648 169.934 273.367 167.273C270.131 164.569 268.513 161.111 268.513 156.899ZM356.697 110.283V118.263V118.861V197.066C356.697 197.686 356.808 198.196 357.029 198.595C357.295 198.994 357.717 199.26 358.293 199.393L361.618 199.992C361.928 200.036 362.128 200.102 362.216 200.191C362.349 200.28 362.416 200.413 362.416 200.59C362.416 200.723 362.349 200.834 362.216 200.923C362.128 201.011 361.973 201.056 361.751 201.056H332.092C331.915 201.056 331.759 201.011 331.626 200.923C331.538 200.834 331.493 200.723 331.493 200.59C331.493 200.457 331.538 200.324 331.626 200.191C331.759 200.058 331.981 199.969 332.291 199.925L335.084 199.393C335.705 199.26 336.126 198.994 336.348 198.595C336.57 198.196 336.68 197.686 336.68 197.066V117.93C336.68 117.62 336.592 117.376 336.414 117.199C336.281 117.022 336.038 116.933 335.683 116.933H332.225C331.959 116.933 331.782 116.889 331.693 116.8C331.604 116.711 331.56 116.578 331.56 116.401C331.56 116.224 331.604 116.113 331.693 116.068C331.826 115.98 331.981 115.891 332.158 115.802L354.236 109.684C354.724 109.551 355.057 109.485 355.234 109.485C355.411 109.441 355.611 109.418 355.832 109.418C356.143 109.418 356.364 109.507 356.497 109.684C356.63 109.817 356.697 110.017 356.697 110.283ZM355.367 121.388L354.502 120.324C357.251 116.733 360.133 114.051 363.147 112.278C366.206 110.505 369.731 109.618 373.721 109.618C378.686 109.618 383.031 110.793 386.755 113.142C390.479 115.448 393.361 118.751 395.4 123.051C397.484 127.351 398.525 132.538 398.525 138.612C398.525 145.262 397.306 151.047 394.868 155.968C392.43 160.889 389.082 164.68 384.826 167.34C380.615 170 375.805 171.33 370.396 171.33C366.184 171.33 362.815 170.643 360.288 169.268C357.761 167.85 355.677 165.589 354.037 162.485L355.5 161.82C356.52 164.081 357.827 165.788 359.423 166.941C361.019 168.094 362.881 168.67 365.009 168.67C367.581 168.67 369.842 167.85 371.792 166.209C373.787 164.569 375.339 161.71 376.447 157.631C377.6 153.508 378.176 147.811 378.176 140.54C378.176 133.935 377.689 128.681 376.713 124.78C375.782 120.834 374.475 117.997 372.79 116.268C371.105 114.495 369.155 113.608 366.938 113.608C364.987 113.608 363.014 114.251 361.019 115.536C359.024 116.778 357.14 118.728 355.367 121.388ZM460.056 136.284C460.056 136.728 459.9 137.082 459.59 137.348C459.324 137.614 458.903 137.747 458.327 137.747H416.897V136.351H439.042C439.795 136.351 440.172 135.885 440.172 134.954C440.172 126.575 439.241 120.48 437.379 116.667C435.517 112.854 433.411 110.948 431.062 110.948C429.244 110.948 427.604 111.702 426.141 113.209C424.722 114.672 423.591 117.066 422.749 120.391C421.951 123.672 421.552 128.016 421.552 133.425C421.552 142.602 423.436 149.385 427.205 153.774C430.973 158.119 435.916 160.291 442.034 160.291C446.822 160.291 450.768 159.05 453.871 156.567C456.974 154.084 458.637 150.715 458.859 146.459C458.859 146.282 458.903 146.171 458.992 146.126C459.125 146.038 459.213 145.993 459.258 145.993C459.346 145.993 459.435 146.038 459.524 146.126C459.657 146.215 459.723 146.392 459.723 146.658C459.59 151.358 458.304 155.569 455.866 159.293C453.472 163.017 450.236 165.966 446.157 168.138C442.078 170.266 437.49 171.33 432.392 171.33C426.628 171.33 421.53 170.089 417.097 167.606C412.708 165.079 409.25 161.577 406.723 157.099C404.24 152.621 402.999 147.412 402.999 141.471C402.999 134.999 404.24 129.391 406.723 124.647C409.25 119.859 412.796 116.157 417.363 113.541C421.929 110.926 427.315 109.618 433.522 109.618C438.931 109.618 443.608 110.793 447.554 113.142C451.544 115.448 454.625 118.618 456.797 122.652C458.969 126.642 460.056 131.186 460.056 136.284ZM133.754 298.688L166.871 262.512C169.664 259.631 171.46 256.816 172.258 254.067C173.056 251.318 172.945 248.902 171.925 246.818C170.905 244.735 169.021 243.294 166.273 242.496L163.879 242.03C163.613 241.942 163.413 241.853 163.28 241.764C163.191 241.676 163.147 241.543 163.147 241.365C163.147 241.232 163.191 241.122 163.28 241.033C163.413 240.944 163.568 240.9 163.746 240.9H194.136C194.313 240.9 194.446 240.944 194.535 241.033C194.668 241.122 194.735 241.232 194.735 241.365C194.735 241.543 194.646 241.676 194.469 241.764C194.336 241.853 194.18 241.942 194.003 242.03C192.762 242.474 191.432 243.117 190.013 243.959C188.639 244.757 186.998 245.887 185.092 247.35C183.23 248.813 180.969 250.764 178.309 253.202C175.693 255.641 172.501 258.788 168.733 262.645L134.353 300.018L133.754 298.688ZM145.658 286.053L162.549 269.362L191.742 326.951C192.806 329.079 193.737 330.586 194.535 331.473C195.377 332.315 196.552 332.803 198.06 332.936C198.281 332.98 198.436 333.047 198.525 333.135C198.658 333.224 198.725 333.335 198.725 333.468C198.725 333.645 198.658 333.778 198.525 333.867C198.392 333.956 198.215 334 197.993 334H161.551C161.329 334 161.152 333.956 161.019 333.867C160.93 333.734 160.886 333.579 160.886 333.401C160.886 333.224 160.953 333.113 161.086 333.069C161.219 332.98 161.396 332.914 161.618 332.869L165.741 332.271C166.361 332.182 166.76 331.85 166.938 331.273C167.159 330.653 166.893 329.589 166.14 328.081L145.658 286.053ZM137.611 330.209C137.611 330.741 137.833 331.163 138.276 331.473C138.764 331.739 139.473 331.961 140.404 332.138L144.926 332.869C145.281 332.914 145.525 332.98 145.658 333.069C145.791 333.158 145.857 333.291 145.857 333.468C145.857 333.601 145.791 333.734 145.658 333.867C145.569 333.956 145.392 334 145.126 334H106.489C106.223 334 106.024 333.956 105.891 333.867C105.758 333.734 105.691 333.601 105.691 333.468C105.691 333.202 106.024 333.002 106.689 332.869L111.211 332.138C112.142 332.005 112.829 331.783 113.272 331.473C113.76 331.163 114.004 330.741 114.004 330.209V244.69C114.004 244.158 113.76 243.737 113.272 243.427C112.829 243.117 112.142 242.895 111.211 242.762L106.689 242.03C106.024 241.897 105.691 241.698 105.691 241.432C105.691 241.299 105.758 241.188 105.891 241.099C106.024 240.966 106.223 240.9 106.489 240.9H145.126C145.392 240.9 145.569 240.966 145.658 241.099C145.791 241.188 145.857 241.299 145.857 241.432C145.857 241.698 145.547 241.897 144.926 242.03L140.404 242.762C139.473 242.895 138.764 243.117 138.276 243.427C137.833 243.737 137.611 244.158 137.611 244.69V330.209ZM234.58 327.815V327.017L233.649 327.948V282.263C233.649 279.869 233.094 278.029 231.986 276.743C230.922 275.413 229.481 274.748 227.664 274.748C225.491 274.748 223.851 275.325 222.743 276.477C221.634 277.63 221.08 279.049 221.08 280.733V286.918C221.08 289.534 220.105 291.795 218.154 293.701C216.248 295.563 213.787 296.494 210.773 296.494C208.645 296.494 206.893 295.895 205.519 294.698C204.189 293.457 203.524 291.595 203.524 289.112C203.524 286.718 204.522 284.347 206.517 281.997C208.512 279.603 211.482 277.608 215.428 276.012C219.373 274.416 224.272 273.618 230.124 273.618C238.015 273.618 243.912 275.214 247.813 278.406C251.759 281.554 253.732 286.076 253.732 291.972V325.621C253.732 326.951 253.975 327.926 254.463 328.547C254.995 329.123 255.616 329.411 256.325 329.411C257.034 329.411 257.699 329.168 258.32 328.68C258.985 328.192 259.406 327.328 259.584 326.086C259.628 325.865 259.672 325.732 259.717 325.688C259.805 325.643 259.894 325.621 259.983 325.621C260.071 325.621 260.138 325.643 260.182 325.688C260.271 325.732 260.315 325.865 260.315 326.086C260.315 327.017 259.85 328.214 258.919 329.677C258.032 331.096 256.547 332.382 254.463 333.534C252.424 334.687 249.631 335.264 246.084 335.264C242.005 335.264 239.057 334.554 237.24 333.135C235.466 331.672 234.58 329.899 234.58 327.815ZM200 320.899C200 315.801 202.105 311.767 206.317 308.796C210.573 305.782 217.489 304.274 227.065 304.274C229.459 304.274 231.365 304.518 232.784 305.006C234.247 305.449 235.599 306.07 236.841 306.868L236.242 307.4C234.956 306.735 233.671 306.247 232.385 305.937C231.144 305.627 229.747 305.471 228.196 305.471C225.536 305.471 223.474 306.535 222.011 308.663C220.548 310.791 219.817 313.917 219.817 318.04C219.817 321.986 220.548 324.912 222.011 326.818C223.474 328.724 225.358 329.677 227.664 329.677C229.082 329.677 230.501 329.278 231.92 328.48C233.383 327.638 234.557 326.552 235.444 325.222L236.309 325.688C234.447 328.791 231.809 331.163 228.395 332.803C224.981 334.443 221.302 335.264 217.356 335.264C212.302 335.264 208.135 333.934 204.854 331.273C201.618 328.569 200 325.111 200 320.899ZM289.514 235.314V330.01C289.514 330.631 289.625 331.14 289.846 331.539C290.112 331.938 290.533 332.204 291.11 332.337L294.169 332.936C294.479 332.98 294.679 333.047 294.767 333.135C294.9 333.224 294.967 333.357 294.967 333.534C294.967 333.667 294.9 333.778 294.767 333.867C294.679 333.956 294.523 334 294.302 334H264.643C264.465 334 264.31 333.956 264.177 333.867C264.089 333.778 264.044 333.667 264.044 333.534C264.044 333.401 264.089 333.291 264.177 333.202C264.31 333.069 264.532 332.958 264.842 332.869L267.901 332.337C268.522 332.204 268.943 331.938 269.165 331.539C269.386 331.14 269.497 330.631 269.497 330.01V242.961C269.497 242.651 269.409 242.429 269.231 242.296C269.098 242.119 268.854 242.03 268.5 242.03H265.042C264.776 242.03 264.598 241.986 264.51 241.897C264.421 241.764 264.377 241.609 264.377 241.432C264.377 241.255 264.421 241.144 264.51 241.099C264.643 241.011 264.798 240.944 264.975 240.9L287.053 234.715C287.541 234.582 287.873 234.516 288.051 234.516C288.228 234.472 288.428 234.449 288.649 234.449C288.96 234.449 289.181 234.538 289.314 234.715C289.447 234.848 289.514 235.048 289.514 235.314ZM333.42 327.815V327.017L332.489 327.948V282.263C332.489 279.869 331.935 278.029 330.827 276.743C329.763 275.413 328.322 274.748 326.504 274.748C324.332 274.748 322.692 275.325 321.583 276.477C320.475 277.63 319.921 279.049 319.921 280.733V286.918C319.921 289.534 318.946 291.795 316.995 293.701C315.089 295.563 312.628 296.494 309.613 296.494C307.485 296.494 305.734 295.895 304.36 294.698C303.03 293.457 302.365 291.595 302.365 289.112C302.365 286.718 303.362 284.347 305.357 281.997C307.352 279.603 310.323 277.608 314.268 276.012C318.214 274.416 323.113 273.618 328.965 273.618C336.856 273.618 342.753 275.214 346.654 278.406C350.6 281.554 352.572 286.076 352.572 291.972V325.621C352.572 326.951 352.816 327.926 353.304 328.547C353.836 329.123 354.457 329.411 355.166 329.411C355.875 329.411 356.54 329.168 357.161 328.68C357.826 328.192 358.247 327.328 358.424 326.086C358.469 325.865 358.513 325.732 358.557 325.688C358.646 325.643 358.735 325.621 358.823 325.621C358.912 325.621 358.979 325.643 359.023 325.688C359.112 325.732 359.156 325.865 359.156 326.086C359.156 327.017 358.69 328.214 357.759 329.677C356.873 331.096 355.388 332.382 353.304 333.534C351.265 334.687 348.472 335.264 344.925 335.264C340.846 335.264 337.898 334.554 336.08 333.135C334.307 331.672 333.42 329.899 333.42 327.815ZM298.84 320.899C298.84 315.801 300.946 311.767 305.158 308.796C309.414 305.782 316.33 304.274 325.906 304.274C328.3 304.274 330.206 304.518 331.625 305.006C333.088 305.449 334.44 306.07 335.681 306.868L335.083 307.4C333.797 306.735 332.512 306.247 331.226 305.937C329.985 305.627 328.588 305.471 327.036 305.471C324.376 305.471 322.315 306.535 320.852 308.663C319.389 310.791 318.657 313.917 318.657 318.04C318.657 321.986 319.389 324.912 320.852 326.818C322.315 328.724 324.199 329.677 326.504 329.677C327.923 329.677 329.342 329.278 330.76 328.48C332.223 327.638 333.398 326.552 334.285 325.222L335.149 325.688C333.287 328.791 330.65 331.163 327.236 332.803C323.822 334.443 320.143 335.264 316.197 335.264C311.143 335.264 306.976 333.934 303.695 331.273C300.459 328.569 298.84 325.111 298.84 320.899ZM362.819 334C362.641 334 362.486 333.956 362.353 333.867C362.264 333.778 362.22 333.667 362.22 333.534C362.22 333.401 362.264 333.291 362.353 333.202C362.486 333.069 362.708 332.958 363.018 332.869L366.077 332.337C366.698 332.204 367.119 331.938 367.341 331.539C367.562 331.14 367.673 330.631 367.673 330.01V242.961C367.673 242.651 367.584 242.429 367.407 242.296C367.274 242.119 367.03 242.03 366.676 242.03H363.218C362.952 242.03 362.774 241.986 362.686 241.897C362.597 241.764 362.553 241.609 362.553 241.432C362.553 241.255 362.597 241.144 362.686 241.099C362.819 241.011 362.974 240.944 363.151 240.9L385.229 234.715C385.717 234.582 386.049 234.516 386.227 234.516C386.404 234.472 386.603 234.449 386.825 234.449C387.135 234.449 387.357 234.538 387.49 234.715C387.623 234.848 387.69 235.048 387.69 235.314V330.01C387.69 330.631 387.8 331.14 388.022 331.539C388.288 331.938 388.709 332.204 389.286 332.337L392.345 332.936C392.877 333.025 393.143 333.224 393.143 333.534C393.143 333.845 392.921 334 392.478 334H362.819ZM384.697 311.589L409.701 286.519C411.873 284.347 412.627 282.307 411.962 280.401C411.297 278.495 409.568 277.231 406.775 276.61L404.248 276.078C403.938 275.99 403.716 275.901 403.583 275.812C403.494 275.724 403.45 275.613 403.45 275.48C403.45 275.303 403.517 275.192 403.65 275.147C403.783 275.059 403.938 275.014 404.115 275.014H430.516C430.737 275.014 430.892 275.059 430.981 275.147C431.114 275.192 431.181 275.303 431.181 275.48C431.181 275.657 431.114 275.79 430.981 275.879C430.892 275.968 430.693 276.034 430.383 276.078C426.659 276.921 423.201 278.229 420.009 280.002C416.861 281.775 413.868 284.081 411.031 286.918L385.628 312.587L384.697 311.589ZM406.177 290.841L428.587 329.81C429.119 330.741 429.651 331.406 430.183 331.806C430.759 332.204 431.469 332.581 432.311 332.936C432.666 333.069 432.887 333.18 432.976 333.268C433.065 333.357 433.109 333.468 433.109 333.601C433.109 333.734 433.043 333.845 432.91 333.933C432.821 333.978 432.688 334 432.511 334H399.992C399.815 334 399.66 333.956 399.527 333.867C399.394 333.778 399.327 333.667 399.327 333.534C399.327 333.401 399.394 333.291 399.527 333.202C399.66 333.069 399.859 332.98 400.125 332.936L402.852 332.404C403.871 332.182 404.492 331.85 404.714 331.406C404.98 330.919 404.913 330.276 404.514 329.478L391.813 305.538L406.177 290.841ZM468.499 327.815V327.017L467.568 327.948V282.263C467.568 279.869 467.013 278.029 465.905 276.743C464.841 275.413 463.4 274.748 461.583 274.748C459.41 274.748 457.77 275.325 456.662 276.477C455.553 277.63 454.999 279.049 454.999 280.733V286.918C454.999 289.534 454.024 291.795 452.073 293.701C450.167 295.563 447.706 296.494 444.692 296.494C442.564 296.494 440.812 295.895 439.438 294.698C438.108 293.457 437.443 291.595 437.443 289.112C437.443 286.718 438.441 284.347 440.436 281.997C442.431 279.603 445.401 277.608 449.347 276.012C453.292 274.416 458.191 273.618 464.043 273.618C471.934 273.618 477.831 275.214 481.732 278.406C485.678 281.554 487.651 286.076 487.651 291.972V325.621C487.651 326.951 487.894 327.926 488.382 328.547C488.914 329.123 489.535 329.411 490.244 329.411C490.953 329.411 491.618 329.168 492.239 328.68C492.904 328.192 493.325 327.328 493.503 326.086C493.547 325.865 493.591 325.732 493.636 325.688C493.724 325.643 493.813 325.621 493.902 325.621C493.99 325.621 494.057 325.643 494.101 325.688C494.19 325.732 494.234 325.865 494.234 326.086C494.234 327.017 493.769 328.214 492.838 329.677C491.951 331.096 490.466 332.382 488.382 333.534C486.343 334.687 483.55 335.264 480.003 335.264C475.924 335.264 472.976 334.554 471.159 333.135C469.385 331.672 468.499 329.899 468.499 327.815ZM433.919 320.899C433.919 315.801 436.024 311.767 440.236 308.796C444.492 305.782 451.408 304.274 460.984 304.274C463.378 304.274 465.284 304.518 466.703 305.006C468.166 305.449 469.518 306.07 470.76 306.868L470.161 307.4C468.875 306.735 467.59 306.247 466.304 305.937C465.063 305.627 463.666 305.471 462.115 305.471C459.455 305.471 457.393 306.535 455.93 308.663C454.467 310.791 453.736 313.917 453.736 318.04C453.736 321.986 454.467 324.912 455.93 326.818C457.393 328.724 459.277 329.677 461.583 329.677C463.001 329.677 464.42 329.278 465.839 328.48C467.302 327.638 468.476 326.552 469.363 325.222L470.228 325.688C468.366 328.791 465.728 331.163 462.314 332.803C458.9 334.443 455.221 335.264 451.275 335.264C446.221 335.264 442.054 333.934 438.773 331.273C435.537 328.569 433.919 325.111 433.919 320.899ZM523.433 235.314V330.01C523.433 330.631 523.544 331.14 523.765 331.539C524.031 331.938 524.452 332.204 525.029 332.337L528.088 332.936C528.398 332.98 528.598 333.047 528.686 333.135C528.819 333.224 528.886 333.357 528.886 333.534C528.886 333.667 528.819 333.778 528.686 333.867C528.598 333.956 528.442 334 528.221 334H498.562C498.384 334 498.229 333.956 498.096 333.867C498.008 333.778 497.963 333.667 497.963 333.534C497.963 333.401 498.008 333.291 498.096 333.202C498.229 333.069 498.451 332.958 498.761 332.869L501.82 332.337C502.441 332.204 502.862 331.938 503.084 331.539C503.305 331.14 503.416 330.631 503.416 330.01V242.961C503.416 242.651 503.328 242.429 503.15 242.296C503.017 242.119 502.773 242.03 502.419 242.03H498.961C498.695 242.03 498.517 241.986 498.429 241.897C498.34 241.764 498.296 241.609 498.296 241.432C498.296 241.255 498.34 241.144 498.429 241.099C498.562 241.011 498.717 240.944 498.894 240.9L520.972 234.715C521.46 234.582 521.792 234.516 521.97 234.516C522.147 234.472 522.347 234.449 522.568 234.449C522.879 234.449 523.1 234.538 523.233 234.715C523.366 234.848 523.433 235.048 523.433 235.314Z" fill="black"/>
<path d="M179.726 472.989C179.726 472.408 179.835 471.935 180.053 471.572C180.344 471.136 180.671 470.7 181.034 470.264L214.933 440.616C215.514 440.107 215.95 439.78 216.241 439.635C216.604 439.49 216.931 439.417 217.222 439.417C217.585 439.417 217.84 439.526 217.985 439.744C218.203 439.962 218.312 440.325 218.312 440.834V538.934C218.312 540.169 218.639 541.078 219.293 541.659C220.02 542.24 221.037 542.676 222.345 542.967L233.79 545.256C234.153 545.329 234.408 545.438 234.553 545.583C234.771 545.656 234.88 545.837 234.88 546.128C234.88 546.346 234.771 546.564 234.553 546.782C234.408 546.927 234.153 547 233.79 547H163.594C162.722 547 162.286 546.709 162.286 546.128C162.286 545.765 162.649 545.51 163.376 545.365L176.238 543.076C177.546 542.785 178.454 542.349 178.963 541.768C179.472 541.187 179.726 540.351 179.726 539.261V472.989ZM165.12 462.852C167.445 460.672 169.189 458.492 170.352 456.312C171.515 454.059 172.096 451.334 172.096 448.137C172.096 445.448 171.26 442.832 169.589 440.289C167.99 437.673 166.101 434.984 163.921 432.223C161.741 429.389 159.815 426.41 158.144 423.285C156.545 420.088 155.746 416.6 155.746 412.821C155.746 408.606 156.763 404.682 158.798 401.049C160.905 397.416 163.885 394.509 167.736 392.329C171.66 390.149 176.347 389.059 181.797 389.059C189.354 389.059 195.313 391.312 199.673 395.817C204.106 400.25 206.322 405.591 206.322 411.84C206.322 415.909 205.595 419.761 204.142 423.394C202.689 427.027 200.182 430.988 196.621 435.275C193.06 439.562 188.119 444.649 181.797 450.535L120.103 512.338L120.212 510.921H239.458C239.821 510.921 240.112 510.994 240.33 511.139C240.621 511.212 240.766 511.43 240.766 511.793C240.766 512.665 240.112 513.101 238.804 513.101H119.231C118.868 513.101 118.577 512.992 118.359 512.774C118.141 512.556 118.032 512.265 118.032 511.902C118.032 511.611 118.105 511.357 118.25 511.139C118.395 510.848 118.577 510.63 118.795 510.485L165.12 462.852ZM315.159 392.438C328.675 392.438 340.265 395.49 349.93 401.594C359.594 407.625 367.006 416.491 372.166 428.19C377.325 439.889 379.905 454.132 379.905 470.918C379.905 487.849 377.216 502.128 371.839 513.755C366.461 525.382 358.94 534.211 349.276 540.242C339.611 546.201 328.239 549.18 315.159 549.18C301.643 549.18 290.198 546.055 280.824 539.806C271.45 533.484 264.292 524.364 259.351 512.447C254.482 500.457 252.048 485.887 252.048 468.738C252.048 453.115 254.627 439.599 259.787 428.19C264.946 416.781 272.249 407.989 281.696 401.812C291.142 395.563 302.297 392.438 315.159 392.438ZM340.12 479.42C340.12 459.291 339.211 442.978 337.395 430.479C335.651 417.98 332.889 408.861 329.111 403.12C325.332 397.307 320.391 394.4 314.287 394.4C309.055 394.4 304.767 396.58 301.425 400.94C298.155 405.3 295.72 412.421 294.122 422.304C292.523 432.114 291.724 445.267 291.724 461.762C291.724 481.818 292.596 498.132 294.34 510.703C296.084 523.274 298.845 532.503 302.624 538.389C306.475 544.275 311.453 547.218 317.557 547.218C322.498 547.218 326.64 545.183 329.983 541.114C333.325 536.972 335.832 529.96 337.504 520.077C339.248 510.194 340.12 496.642 340.12 479.42ZM447.968 472.989C447.968 472.408 448.077 471.935 448.295 471.572C448.586 471.136 448.913 470.7 449.276 470.264L483.175 440.616C483.757 440.107 484.193 439.78 484.483 439.635C484.847 439.49 485.174 439.417 485.464 439.417C485.828 439.417 486.082 439.526 486.227 439.744C486.445 439.962 486.554 440.325 486.554 440.834V538.934C486.554 540.169 486.881 541.078 487.535 541.659C488.262 542.24 489.279 542.676 490.587 542.967L502.032 545.256C502.396 545.329 502.65 545.438 502.795 545.583C503.013 545.656 503.122 545.837 503.122 546.128C503.122 546.346 503.013 546.564 502.795 546.782C502.65 546.927 502.396 547 502.032 547H431.836C430.964 547 430.528 546.709 430.528 546.128C430.528 545.765 430.892 545.51 431.618 545.365L444.48 543.076C445.788 542.785 446.697 542.349 447.205 541.768C447.714 541.187 447.968 540.351 447.968 539.261V472.989ZM433.362 462.852C435.688 460.672 437.432 458.492 438.594 456.312C439.757 454.059 440.338 451.334 440.338 448.137C440.338 445.448 439.503 442.832 437.831 440.289C436.233 437.673 434.343 434.984 432.163 432.223C429.983 429.389 428.058 426.41 426.386 423.285C424.788 420.088 423.988 416.6 423.988 412.821C423.988 408.606 425.006 404.682 427.04 401.049C429.148 397.416 432.127 394.509 435.978 392.329C439.902 390.149 444.589 389.059 450.039 389.059C457.597 389.059 463.555 391.312 467.915 395.817C472.348 400.25 474.564 405.591 474.564 411.84C474.564 415.909 473.838 419.761 472.384 423.394C470.931 427.027 468.424 430.988 464.863 435.275C461.303 439.562 456.361 444.649 450.039 450.535L388.345 512.338L388.454 510.921H507.7C508.064 510.921 508.354 510.994 508.572 511.139C508.863 511.212 509.008 511.43 509.008 511.793C509.008 512.665 508.354 513.101 507.046 513.101H387.473C387.11 513.101 386.819 512.992 386.601 512.774C386.383 512.556 386.274 512.265 386.274 511.902C386.274 511.611 386.347 511.357 386.492 511.139C386.638 510.848 386.819 510.63 387.037 510.485L433.362 462.852ZM117.368 604.008C117.368 607.156 116.575 609.878 114.99 612.173C113.428 614.469 111.215 616.256 108.351 617.534C105.487 618.788 102.127 619.415 98.2691 619.415C95.5001 619.415 93.0861 619.12 91.0271 618.528C88.9917 617.913 87.1576 617.049 85.5246 615.936L85.8796 613.593C86.8499 614.28 87.7847 614.836 88.6841 615.262C89.6071 615.664 90.5419 615.972 91.4886 616.185C92.4352 616.374 93.4292 616.469 94.4706 616.469C96.3166 616.469 97.9969 615.996 99.5116 615.049C101.026 614.079 102.233 612.647 103.133 610.753C104.056 608.86 104.517 606.517 104.517 603.724C104.517 600.411 103.985 597.583 102.92 595.24C101.855 592.897 100.399 591.11 98.5531 589.879C96.7307 588.625 94.6599 587.998 92.3406 587.998H90.3526V630.278C90.3526 630.728 90.4827 631.095 90.7431 631.379C91.0034 631.663 91.4176 631.864 91.9856 631.982L94.5771 632.408C95.0031 632.503 95.3107 632.657 95.5001 632.87C95.6894 633.083 95.7841 633.379 95.7841 633.757C95.7841 634.136 95.6539 634.444 95.3936 634.68C95.1569 634.893 94.7664 635 94.2221 635H73.9161C73.3717 635 72.9694 634.893 72.7091 634.68C72.4487 634.444 72.3186 634.136 72.3186 633.757C72.3186 633.095 72.6854 632.645 73.4191 632.408L75.5136 631.947C76.0579 631.805 76.4602 631.604 76.7206 631.343C77.0046 631.059 77.1466 630.716 77.1466 630.314V590.092C77.1466 589.643 77.0046 589.276 76.7206 588.992C76.4602 588.708 76.0697 588.495 75.5491 588.353L73.3836 587.891C72.6736 587.655 72.3186 587.205 72.3186 586.542C72.3186 586.14 72.4369 585.832 72.6736 585.619C72.9339 585.406 73.3362 585.3 73.8806 585.3H92.5536C97.6892 585.3 102.103 586.093 105.795 587.678C109.511 589.264 112.363 591.465 114.351 594.281C116.362 597.098 117.368 600.34 117.368 604.008ZM140.68 630.953V630.314L139.934 630.491V607.381C139.934 606.103 139.627 605.109 139.011 604.399C138.396 603.665 137.544 603.298 136.455 603.298C135.367 603.298 134.515 603.571 133.899 604.115C133.308 604.636 133.012 605.275 133.012 606.032V609.475C133.012 611.037 132.468 612.304 131.379 613.274C130.29 614.221 128.787 614.694 126.87 614.694C125.379 614.694 124.22 614.327 123.391 613.593C122.587 612.86 122.184 611.807 122.184 610.434C122.184 609.014 122.788 607.606 123.995 606.209C125.202 604.813 127.001 603.653 129.391 602.73C131.781 601.807 134.751 601.346 138.301 601.346C142.774 601.346 146.1 602.222 148.277 603.973C150.478 605.724 151.578 608.162 151.578 611.286V629.107C151.578 629.722 151.709 630.196 151.969 630.527C152.229 630.835 152.584 630.988 153.034 630.988C153.46 630.988 153.815 630.87 154.099 630.633C154.383 630.373 154.608 630.03 154.773 629.604C154.868 629.486 154.963 629.391 155.057 629.32C155.152 629.225 155.27 629.178 155.412 629.178C155.649 629.178 155.815 629.261 155.909 629.426C156.004 629.568 156.051 629.77 156.051 630.03C156.051 630.764 155.756 631.58 155.164 632.479C154.596 633.379 153.708 634.16 152.501 634.822C151.294 635.485 149.732 635.817 147.815 635.817C145.52 635.817 143.757 635.367 142.526 634.467C141.295 633.544 140.68 632.373 140.68 630.953ZM120.551 627.722C120.551 624.788 121.829 622.457 124.385 620.729C126.941 619.001 130.752 618.137 135.816 618.137C137.189 618.137 138.361 618.256 139.331 618.492C140.301 618.729 141.153 619.049 141.887 619.451L141.177 621.048C140.514 620.717 139.852 620.469 139.189 620.303C138.55 620.137 137.828 620.054 137.023 620.054C135.532 620.054 134.361 620.551 133.509 621.545C132.681 622.539 132.266 623.983 132.266 625.877C132.266 627.722 132.657 629.119 133.438 630.065C134.243 630.988 135.284 631.45 136.562 631.45C137.438 631.45 138.29 631.225 139.118 630.775C139.946 630.326 140.621 629.746 141.141 629.036L141.816 630.491C140.704 632.195 139.13 633.509 137.094 634.432C135.083 635.355 132.929 635.817 130.633 635.817C127.651 635.817 125.226 635.059 123.356 633.544C121.486 632.03 120.551 630.089 120.551 627.722ZM181.198 631.556C184.796 632.03 187.624 632.657 189.683 633.438C191.765 634.219 193.256 635.225 194.156 636.456C195.055 637.686 195.505 639.225 195.505 641.071C195.505 644.384 193.789 647.094 190.357 649.2C186.926 651.33 182.003 652.395 175.589 652.395C171.211 652.395 167.72 652.076 165.117 651.437C162.537 650.798 160.679 649.91 159.543 648.774C158.431 647.638 157.875 646.325 157.875 644.834C157.875 642.988 158.691 641.449 160.324 640.218C161.981 639.012 164.88 638.171 169.022 637.698L169.27 638.444C168.347 638.68 167.625 639.118 167.105 639.757C166.608 640.396 166.359 641.118 166.359 641.923C166.359 644.313 167.188 646.23 168.844 647.674C170.501 649.117 173.199 649.839 176.938 649.839C179.021 649.839 180.689 649.662 181.944 649.307C183.222 648.975 184.157 648.455 184.748 647.745C185.34 647.058 185.636 646.194 185.636 645.153C185.636 644.301 185.316 643.556 184.677 642.917C184.062 642.301 182.973 641.757 181.411 641.284C179.873 640.834 177.707 640.396 174.915 639.97C171.649 639.473 169.105 638.929 167.282 638.337C165.484 637.745 164.217 637.024 163.484 636.171C162.75 635.343 162.383 634.314 162.383 633.083C162.383 631.9 162.703 630.835 163.342 629.888C164.004 628.918 165.093 628.113 166.608 627.474C168.122 626.835 170.193 626.421 172.82 626.231L173.14 626.657C172.666 626.823 172.288 627.06 172.004 627.367C171.72 627.651 171.578 627.983 171.578 628.361C171.578 628.764 171.767 629.131 172.146 629.462C172.548 629.77 173.424 630.089 174.773 630.42C176.145 630.752 178.287 631.13 181.198 631.556ZM181.482 604.15L182.299 602.269C183.364 599.689 184.701 597.701 186.31 596.305C187.943 594.909 189.789 594.21 191.848 594.21C193.552 594.21 194.889 594.696 195.86 595.666C196.854 596.613 197.351 597.914 197.351 599.571C197.351 601.015 196.984 602.162 196.25 603.014C195.54 603.866 194.546 604.292 193.268 604.292C192.416 604.292 191.742 604.091 191.245 603.689C190.748 603.287 190.298 602.813 189.896 602.269C189.517 601.725 189.103 601.251 188.653 600.849C188.227 600.423 187.671 600.21 186.985 600.21C186.204 600.21 185.541 600.518 184.997 601.133C184.476 601.725 183.908 602.754 183.293 604.221L181.482 604.15ZM192.878 613.806C192.878 616.41 192.156 618.717 190.712 620.729C189.269 622.741 187.257 624.314 184.677 625.45C182.121 626.586 179.127 627.154 175.696 627.154C172.24 627.154 169.258 626.61 166.75 625.521C164.265 624.433 162.348 622.965 160.999 621.119C159.673 619.25 159.011 617.179 159.011 614.907C159.011 612.28 159.721 609.961 161.141 607.949C162.561 605.914 164.584 604.316 167.211 603.156C169.838 601.997 172.95 601.417 176.548 601.417C179.979 601.417 182.914 601.985 185.352 603.121C187.789 604.233 189.647 605.724 190.925 607.594C192.227 609.464 192.878 611.534 192.878 613.806ZM174.382 603.76C173.412 603.855 172.619 604.34 172.004 605.215C171.412 606.067 171.022 607.274 170.832 608.836C170.667 610.398 170.738 612.28 171.045 614.481C171.353 616.753 171.803 618.67 172.394 620.232C173.01 621.77 173.743 622.918 174.595 623.675C175.447 624.409 176.37 624.729 177.364 624.634C178.808 624.492 179.837 623.51 180.453 621.687C181.068 619.841 181.139 617.25 180.666 613.913C180.216 610.481 179.435 607.902 178.323 606.174C177.21 604.423 175.897 603.618 174.382 603.76ZM230.619 615.191C230.619 616.09 230.359 616.8 229.838 617.321C229.341 617.818 228.608 618.066 227.637 618.066H205.805V615.972H217.733C218.608 615.972 219.046 615.546 219.046 614.694C219.046 611.002 218.561 608.304 217.591 606.6C216.644 604.872 215.473 604.008 214.076 604.008C213.011 604.008 212.053 604.399 211.201 605.18C210.372 605.937 209.71 607.121 209.213 608.73C208.739 610.316 208.503 612.351 208.503 614.836C208.503 619.475 209.52 622.918 211.556 625.166C213.591 627.391 216.301 628.503 219.685 628.503C221.815 628.503 223.649 628.042 225.188 627.119C226.726 626.196 227.803 624.859 228.418 623.107C228.726 622.776 228.974 622.551 229.164 622.433C229.353 622.291 229.542 622.22 229.732 622.22C229.992 622.22 230.181 622.35 230.3 622.61C230.442 622.847 230.513 623.155 230.513 623.533C230.465 625.805 229.767 627.876 228.418 629.746C227.069 631.592 225.247 633.071 222.951 634.183C220.656 635.272 218.029 635.817 215.07 635.817C211.757 635.817 208.81 635.13 206.231 633.757C203.651 632.385 201.616 630.456 200.125 627.971C198.657 625.486 197.924 622.587 197.924 619.273C197.924 615.676 198.634 612.54 200.054 609.866C201.474 607.168 203.497 605.073 206.124 603.582C208.775 602.068 211.923 601.31 215.567 601.31C218.762 601.31 221.472 601.914 223.697 603.121C225.945 604.328 227.661 605.973 228.844 608.055C230.028 610.138 230.619 612.517 230.619 615.191ZM262.277 603.085V630.42C262.277 631.036 262.348 631.497 262.49 631.805C262.656 632.089 262.916 632.29 263.271 632.408L264.584 632.763C265.105 633 265.365 633.355 265.365 633.829C265.365 634.61 264.892 635 263.945 635H248.716C248.243 635 247.888 634.905 247.651 634.716C247.414 634.503 247.296 634.231 247.296 633.899C247.296 633.639 247.367 633.414 247.509 633.225C247.651 633.036 247.899 632.882 248.254 632.763L249.603 632.408C249.958 632.29 250.207 632.089 250.349 631.805C250.515 631.521 250.597 631.071 250.597 630.456V608.73C250.597 608.28 250.526 607.961 250.384 607.771C250.242 607.558 250.018 607.428 249.71 607.381L248.148 607.274C247.84 607.203 247.615 607.085 247.473 606.919C247.331 606.754 247.26 606.541 247.26 606.28C247.26 605.973 247.343 605.736 247.509 605.57C247.698 605.381 248.018 605.204 248.467 605.038L257.768 602.056C258.455 601.819 258.999 601.654 259.401 601.559C259.804 601.441 260.194 601.381 260.573 601.381C261.141 601.381 261.567 601.535 261.851 601.843C262.135 602.151 262.277 602.565 262.277 603.085ZM261.247 611.002L260.005 609.724L261.283 608.588C264.099 606.032 266.537 604.186 268.596 603.05C270.679 601.914 272.607 601.346 274.382 601.346C276.986 601.346 279.009 602.186 280.453 603.866C281.92 605.547 282.82 607.925 283.151 611.002L285.281 630.349C285.352 630.988 285.447 631.474 285.565 631.805C285.707 632.113 285.967 632.326 286.346 632.444L287.588 632.763C287.92 632.882 288.156 633.036 288.298 633.225C288.464 633.414 288.547 633.639 288.547 633.899C288.547 634.231 288.429 634.503 288.192 634.716C287.979 634.905 287.624 635 287.127 635H271.684C270.714 635 270.229 634.61 270.229 633.829C270.229 633.355 270.501 633 271.045 632.763L272.359 632.408C272.738 632.29 273.022 632.077 273.211 631.769C273.4 631.462 273.459 630.988 273.388 630.349L271.578 612.493C271.389 610.813 270.986 609.57 270.371 608.765C269.756 607.937 268.821 607.523 267.566 607.523C266.738 607.523 265.91 607.724 265.081 608.126C264.253 608.529 263.413 609.109 262.561 609.866L261.247 611.002ZM308.952 601.346C312.526 601.346 315.673 602.08 318.395 603.547C321.117 604.991 323.235 607.026 324.75 609.653C326.288 612.256 327.057 615.274 327.057 618.705C327.057 621.995 326.264 624.93 324.679 627.509C323.093 630.089 320.904 632.124 318.111 633.615C315.342 635.083 312.135 635.817 308.491 635.817C304.917 635.817 301.769 635.095 299.048 633.651C296.35 632.184 294.231 630.16 292.693 627.58C291.178 624.977 290.421 621.983 290.421 618.599C290.421 615.262 291.214 612.304 292.8 609.724C294.385 607.121 296.563 605.073 299.332 603.582C302.124 602.091 305.331 601.346 308.952 601.346ZM311.224 633.118C312.431 632.929 313.39 632.243 314.1 631.059C314.81 629.876 315.224 628.172 315.342 625.947C315.46 623.723 315.247 620.966 314.703 617.676C314.182 614.434 313.508 611.783 312.68 609.724C311.851 607.641 310.893 606.138 309.804 605.215C308.715 604.269 307.544 603.89 306.29 604.079C305.059 604.292 304.089 604.991 303.379 606.174C302.692 607.357 302.29 609.061 302.172 611.286C302.077 613.487 302.29 616.22 302.811 619.486C303.355 622.705 304.041 625.368 304.87 627.474C305.698 629.557 306.645 631.071 307.71 632.018C308.798 632.941 309.97 633.308 311.224 633.118ZM332.484 604.967L330.425 604.399C330.07 604.281 329.809 604.127 329.644 603.937C329.478 603.748 329.395 603.523 329.395 603.263C329.395 602.932 329.513 602.671 329.75 602.482C329.987 602.269 330.294 602.162 330.673 602.162H333.158C333.489 602.162 333.785 602.103 334.046 601.985C334.306 601.843 334.602 601.583 334.933 601.204L341.465 594.92C341.867 594.494 342.258 594.175 342.637 593.962C343.039 593.725 343.418 593.607 343.773 593.607C344.175 593.607 344.483 593.737 344.696 593.997C344.932 594.258 345.051 594.636 345.051 595.133V624.492C345.051 626.338 345.382 627.722 346.045 628.645C346.731 629.568 347.678 630.03 348.885 630.03C349.571 630.03 350.127 629.9 350.553 629.639C351.003 629.355 351.381 629 351.689 628.574C352.02 628.148 352.328 627.711 352.612 627.261C352.896 626.811 353.216 626.409 353.571 626.054C353.807 625.983 354.02 626.03 354.21 626.196C354.399 626.338 354.482 626.634 354.458 627.083C354.292 628.811 353.76 630.326 352.861 631.627C351.985 632.929 350.79 633.947 349.275 634.68C347.76 635.414 345.962 635.781 343.879 635.781C340.589 635.781 338.045 634.988 336.247 633.402C334.448 631.817 333.549 629.403 333.549 626.16V606.458C333.549 606.008 333.466 605.677 333.3 605.464C333.158 605.251 332.886 605.085 332.484 604.967ZM341.11 604.896L341.288 602.162H353.038C353.464 602.162 353.784 602.245 353.997 602.411C354.233 602.577 354.352 602.825 354.352 603.156C354.352 603.653 354.103 604.068 353.606 604.399C353.133 604.73 352.364 604.896 351.299 604.896H341.11ZM386.663 630.385C386.663 630.929 386.758 631.355 386.947 631.663C387.16 631.971 387.503 632.16 387.977 632.231L391.669 632.728C392.095 632.775 392.391 632.905 392.556 633.118C392.746 633.308 392.84 633.556 392.84 633.864C392.84 634.621 392.391 635 391.491 635H372.108C371.706 635 371.375 634.905 371.114 634.716C370.878 634.527 370.759 634.266 370.759 633.935C370.759 633.627 370.842 633.379 371.008 633.189C371.197 633 371.493 632.858 371.895 632.763L373.706 632.302C374.226 632.16 374.593 631.959 374.806 631.698C375.019 631.414 375.126 631.036 375.126 630.562V607.487C375.126 607.18 375.043 606.908 374.877 606.671C374.712 606.434 374.404 606.233 373.954 606.067L371.434 605.322C370.937 605.109 370.582 604.908 370.369 604.718C370.179 604.505 370.085 604.257 370.085 603.973C370.085 603.689 370.191 603.452 370.404 603.263C370.641 603.074 370.984 602.979 371.434 602.979H376.794L375.161 603.76V603.05C375.161 602.435 374.972 601.831 374.593 601.239C374.238 600.648 373.812 600.009 373.315 599.323C372.842 598.612 372.416 597.808 372.037 596.908C371.682 596.009 371.505 594.956 371.505 593.749C371.505 590.649 372.558 588.199 374.664 586.4C376.794 584.578 379.753 583.667 383.539 583.667C385.953 583.667 387.977 584.057 389.61 584.838C391.243 585.596 392.462 586.613 393.266 587.891C394.095 589.169 394.509 590.566 394.509 592.08C394.509 593.761 394.059 595.039 393.16 595.914C392.26 596.766 391.101 597.192 389.681 597.192C388.142 597.192 386.888 596.707 385.918 595.737C384.971 594.767 384.498 593.477 384.498 591.867V588.566C384.498 587.596 384.261 586.886 383.788 586.436C383.314 585.986 382.652 585.761 381.8 585.761C380.664 585.761 379.788 586.128 379.173 586.862C378.581 587.596 378.285 588.649 378.285 590.021C378.285 591.276 378.546 592.424 379.066 593.465C379.587 594.506 380.238 595.465 381.019 596.34C381.8 597.192 382.581 598.009 383.362 598.79C384.143 599.547 384.794 600.293 385.314 601.026C385.835 601.76 386.095 602.506 386.095 603.263V604.399L385.137 602.979H392.237C392.686 602.979 393.018 603.062 393.231 603.227C393.467 603.369 393.586 603.606 393.586 603.937C393.586 604.434 393.337 604.849 392.84 605.18C392.343 605.511 391.562 605.677 390.497 605.677H386.663V630.385ZM414.897 601.346C418.471 601.346 421.619 602.08 424.34 603.547C427.062 604.991 429.18 607.026 430.695 609.653C432.233 612.256 433.002 615.274 433.002 618.705C433.002 621.995 432.21 624.93 430.624 627.509C429.038 630.089 426.849 632.124 424.056 633.615C421.287 635.083 418.081 635.817 414.436 635.817C410.862 635.817 407.715 635.095 404.993 633.651C402.295 632.184 400.177 630.16 398.638 627.58C397.124 624.977 396.366 621.983 396.366 618.599C396.366 615.262 397.159 612.304 398.745 609.724C400.331 607.121 402.508 605.073 405.277 603.582C408.07 602.091 411.276 601.346 414.897 601.346ZM417.169 633.118C418.376 632.929 419.335 632.243 420.045 631.059C420.755 629.876 421.169 628.172 421.287 625.947C421.406 623.723 421.193 620.966 420.648 617.676C420.128 614.434 419.453 611.783 418.625 609.724C417.797 607.641 416.838 606.138 415.749 605.215C414.661 604.269 413.489 603.89 412.235 604.079C411.004 604.292 410.034 604.991 409.324 606.174C408.638 607.357 408.235 609.061 408.117 611.286C408.022 613.487 408.235 616.22 408.756 619.486C409.3 622.705 409.987 625.368 410.815 627.474C411.643 629.557 412.59 631.071 413.655 632.018C414.744 632.941 415.915 633.308 417.169 633.118ZM461.113 631.201V628.361L460.9 628.219V608.801C460.9 608.351 460.829 608.032 460.687 607.842C460.545 607.629 460.321 607.499 460.013 607.452L458.451 607.345C458.12 607.274 457.883 607.156 457.741 606.99C457.623 606.801 457.563 606.576 457.563 606.316C457.563 606.032 457.646 605.807 457.812 605.641C458.001 605.452 458.321 605.275 458.77 605.109L468.071 602.127C468.734 601.867 469.267 601.689 469.669 601.594C470.095 601.476 470.497 601.417 470.876 601.417C471.42 601.417 471.834 601.583 472.118 601.914C472.426 602.222 472.58 602.624 472.58 603.121V630.42C472.58 631.036 472.651 631.497 472.793 631.805C472.959 632.089 473.219 632.29 473.574 632.408L474.887 632.763C475.242 632.882 475.491 633.036 475.633 633.225C475.799 633.414 475.881 633.639 475.881 633.899C475.881 634.231 475.763 634.503 475.526 634.716C475.29 634.905 474.923 635 474.426 635H464.521C463.575 635 462.77 634.633 462.107 633.899C461.445 633.166 461.113 632.266 461.113 631.201ZM439.316 625.841V608.801C439.316 608.351 439.245 608.032 439.103 607.842C438.961 607.629 438.737 607.499 438.429 607.452L436.867 607.345C436.536 607.274 436.299 607.156 436.157 606.99C436.039 606.801 435.979 606.576 435.979 606.316C435.979 606.032 436.062 605.807 436.228 605.641C436.394 605.452 436.701 605.275 437.151 605.109L446.487 602.127C447.197 601.867 447.742 601.689 448.12 601.594C448.523 601.476 448.89 601.417 449.221 601.417C449.813 601.417 450.25 601.583 450.534 601.914C450.842 602.222 450.996 602.624 450.996 603.121V624.35C450.996 626.125 451.398 627.45 452.203 628.326C453.008 629.178 454.12 629.604 455.54 629.604C456.416 629.604 457.327 629.415 458.273 629.036C459.244 628.634 460.167 628.042 461.042 627.261L462.356 626.125L463.598 627.403L462.32 628.574C459.433 631.201 456.865 633.071 454.617 634.183C452.392 635.272 450.345 635.817 448.475 635.817C445.754 635.817 443.541 634.953 441.837 633.225C440.157 631.474 439.316 629.012 439.316 625.841ZM494.275 603.085V630.42C494.275 631.036 494.346 631.497 494.488 631.805C494.654 632.089 494.914 632.29 495.269 632.408L496.582 632.763C497.103 633 497.363 633.355 497.363 633.829C497.363 634.61 496.89 635 495.943 635H480.714C480.241 635 479.886 634.905 479.649 634.716C479.412 634.503 479.294 634.231 479.294 633.899C479.294 633.639 479.365 633.414 479.507 633.225C479.649 633.036 479.897 632.882 480.252 632.763L481.601 632.408C481.956 632.29 482.205 632.089 482.347 631.805C482.513 631.521 482.595 631.071 482.595 630.456V608.73C482.595 608.28 482.524 607.961 482.382 607.771C482.24 607.558 482.016 607.428 481.708 607.381L480.146 607.274C479.838 607.203 479.613 607.085 479.471 606.919C479.329 606.754 479.258 606.541 479.258 606.28C479.258 605.973 479.341 605.736 479.507 605.57C479.696 605.381 480.016 605.204 480.465 605.038L489.766 602.056C490.453 601.819 490.997 601.654 491.399 601.559C491.802 601.441 492.192 601.381 492.571 601.381C493.139 601.381 493.565 601.535 493.849 601.843C494.133 602.151 494.275 602.565 494.275 603.085ZM493.245 611.002L492.003 609.724L493.281 608.588C496.097 606.032 498.535 604.186 500.594 603.05C502.677 601.914 504.605 601.346 506.38 601.346C508.984 601.346 511.007 602.186 512.451 603.866C513.918 605.547 514.818 607.925 515.149 611.002L517.279 630.349C517.35 630.988 517.445 631.474 517.563 631.805C517.705 632.113 517.965 632.326 518.344 632.444L519.586 632.763C519.918 632.882 520.154 633.036 520.296 633.225C520.462 633.414 520.545 633.639 520.545 633.899C520.545 634.231 520.427 634.503 520.19 634.716C519.977 634.905 519.622 635 519.125 635H503.682C502.712 635 502.227 634.61 502.227 633.829C502.227 633.355 502.499 633 503.043 632.763L504.357 632.408C504.736 632.29 505.02 632.077 505.209 631.769C505.398 631.462 505.457 630.988 505.386 630.349L503.576 612.493C503.387 610.813 502.984 609.57 502.369 608.765C501.754 607.937 500.819 607.523 499.564 607.523C498.736 607.523 497.908 607.724 497.079 608.126C496.251 608.529 495.411 609.109 494.559 609.866L493.245 611.002ZM546.666 629.923L546.453 629.782V589.205C546.453 588.755 546.382 588.436 546.24 588.246C546.098 588.033 545.861 587.903 545.53 587.856L543.968 587.749C543.66 587.678 543.435 587.56 543.293 587.394C543.151 587.205 543.08 586.992 543.08 586.755C543.08 586.448 543.163 586.211 543.329 586.045C543.518 585.856 543.838 585.679 544.287 585.513L553.588 582.531C554.275 582.271 554.819 582.093 555.221 581.998C555.624 581.88 556.014 581.821 556.393 581.821C556.961 581.821 557.387 581.987 557.671 582.318C557.978 582.626 558.132 583.028 558.132 583.525V630.42C558.132 631.036 558.203 631.497 558.345 631.805C558.511 632.089 558.771 632.29 559.126 632.408L560.44 632.763C560.795 632.882 561.043 633.036 561.185 633.225C561.327 633.414 561.398 633.639 561.398 633.899C561.398 634.231 561.28 634.503 561.043 634.716C560.83 634.905 560.475 635 559.978 635H549.932C549.009 635 548.228 634.704 547.589 634.112C546.973 633.497 546.666 632.728 546.666 631.805V629.923ZM522.49 619.593C522.49 615.901 523.212 612.694 524.656 609.972C526.099 607.227 528.064 605.109 530.549 603.618C533.034 602.103 535.838 601.346 538.962 601.346C541.542 601.346 543.731 601.867 545.53 602.908C547.328 603.949 548.831 605.499 550.038 607.558L547.944 609.014C547.092 607.523 546.133 606.422 545.068 605.712C544.003 605.002 542.808 604.647 541.483 604.647C540.134 604.647 538.927 605.097 537.862 605.996C536.82 606.872 535.992 608.328 535.377 610.363C534.785 612.375 534.489 615.073 534.489 618.457C534.489 621.534 534.761 624.03 535.306 625.947C535.874 627.841 536.643 629.237 537.613 630.136C538.607 631.012 539.731 631.45 540.986 631.45C542.311 631.45 543.554 631.048 544.713 630.243C545.897 629.415 546.997 628.125 548.015 626.373L549.364 627.829C547.612 630.432 545.695 632.42 543.613 633.793C541.53 635.142 539.175 635.817 536.548 635.817C533.803 635.817 531.377 635.154 529.271 633.829C527.164 632.479 525.508 630.586 524.301 628.148C523.094 625.711 522.49 622.859 522.49 619.593Z" fill="black"/>
<path d="M365.722 99.5719C365.528 99.2387 366.016 98.1498 366.805 97.152C368.41 95.1232 368.7 92.1702 367.471 90.3814C366.891 89.5375 365.803 89.201 363.054 89.0149L359.408 88.7679L359.019 92.0744C358.359 97.6986 358.949 97.4612 344.71 97.8241C337.856 97.9988 322.686 98.2046 311 98.2817C291.276 98.4116 289.69 98.3463 288.872 97.3705C287.888 96.1971 285.91 87.122 285.336 81.1476C284.716 74.6967 281.203 75.2474 322.968 75.2474C350.318 75.2474 359.251 75.4204 359.758 75.9597C360.127 76.3515 360.428 77.9699 360.428 79.5562C360.428 81.313 360.644 82.2981 360.982 82.0764C361.843 81.51 369.765 82.8515 371.636 83.8805C377.323 87.0085 376.215 95.6021 369.693 98.9605C367.039 100.327 366.233 100.451 365.722 99.5719ZM314.478 70.6903C314.27 70.4691 314.255 69.0424 314.445 67.5198C314.835 64.3947 314.051 62.2748 311.049 58.329C310.055 57.0222 308.706 55.0189 308.051 53.8772C305.378 49.2119 307.584 41.5144 312.553 38.1721C314.747 36.6958 315.381 37.5079 313.991 40.0147C311.788 43.9866 312.626 48.3309 316.61 53.582C319.231 57.0367 320.422 59.7926 320.458 62.4856C320.499 65.5693 318.839 69.1367 316.854 70.2282C315.052 71.2194 314.987 71.2321 314.478 70.6903ZM329.46 70.5036C329.271 70.1781 329.665 68.3098 330.337 66.3519C332.361 60.4473 331.634 57.6724 325.867 49.2723C323.233 45.4361 322.68 42.3167 323.876 38.0394C324.744 34.9313 328.317 29.481 330.181 28.4199C332.217 27.2607 332.546 28.5411 331.041 31.774C329.078 35.9945 329.516 38.9844 332.825 43.9557C337.764 51.3739 338.369 52.7203 338.348 56.2448C338.324 60.2195 336.802 64.0615 333.893 67.4864C331.452 70.3611 329.965 71.3728 329.46 70.5036Z" fill="black"/>
</svg>
