<svg width="979" height="979" viewBox="0 0 979 979" fill="none" xmlns="http://www.w3.org/2000/svg">
<mask id="path-1-inside-1_80_27" fill="white">
<path d="M190.529 894.798L189.47 894.492V885.867V877.242H175.163C163.954 877.242 159.986 877.129 156.835 876.721C146.363 875.366 136.9 870.793 129.517 863.52C127.176 861.215 123 855.999 123 855.381C123 855.204 270.588 855.085 489.563 855.085C706.844 855.085 856.125 855.205 856.125 855.379C856.125 855.889 853.119 859.711 850.749 862.214C845.419 867.844 838.193 872.336 830.806 874.614C824.522 876.551 822.927 876.692 805.702 876.833L789.981 876.961V885.345C789.981 894.217 789.932 894.511 788.449 894.511C788.037 894.511 787.7 894.658 787.7 894.837C787.7 895.271 192.031 895.232 190.529 894.798ZM643.84 841.477C643.531 841.253 641.947 837.848 635.697 823.968C634.326 820.922 632.274 816.376 631.138 813.867C630.003 811.358 626.331 803.221 622.978 795.784C614.482 776.936 611.76 770.906 604.589 755.054C601.143 747.438 598.196 740.877 598.04 740.473C597.883 740.07 597.633 739.74 597.484 739.74C597.335 739.74 595.947 742.563 594.399 746.013C586.915 762.703 583.742 769.746 582.768 771.835C582.182 773.089 581.151 775.362 580.475 776.885C579.799 778.409 576.797 785.08 573.803 791.711C570.809 798.341 567.106 806.552 565.575 809.957C564.044 813.362 561.949 817.981 560.919 820.221C559.889 822.461 557.316 828.143 555.202 832.847L551.358 841.4H503.517C477.204 841.4 455.676 841.277 455.676 841.126C455.676 840.976 457.524 836.76 459.784 831.759C462.043 826.757 465.573 818.926 467.628 814.356C472.374 803.804 473.718 800.834 475.274 797.462C475.964 795.966 476.529 794.695 476.529 794.637C476.529 794.58 477.494 792.432 478.672 789.864C479.851 787.295 481.081 784.608 481.404 783.891C481.728 783.174 483.051 780.241 484.345 777.374C485.638 774.507 487.028 771.428 487.434 770.532C492.704 758.88 500.381 741.842 501.455 739.414C502.207 737.712 505.353 730.747 508.445 723.937C514.897 709.727 514.128 711.426 518.979 700.64C523.37 690.877 541.134 651.574 545.93 641.013C547.761 636.981 549.262 633.352 549.265 632.948C549.269 632.545 549.402 632.215 549.561 632.215C549.72 632.215 550.2 631.446 550.627 630.505C551.054 629.564 552.591 626.185 554.044 622.997C555.496 619.809 556.684 617.147 556.684 617.083C556.684 617.018 557.252 615.741 557.946 614.245C560.292 609.187 565.582 597.511 569.881 587.902C571.365 584.587 574.808 576.962 577.532 570.959C580.257 564.955 583.664 557.404 585.103 554.178C586.542 550.952 588.417 546.774 589.269 544.892C590.121 543.01 591.114 540.811 591.475 540.004C591.836 539.198 593.263 536.046 594.647 532.999C596.03 529.953 598.105 525.348 599.258 522.766C600.41 520.185 602.136 516.373 603.093 514.295C604.05 512.217 605.823 508.317 607.033 505.629C609.519 500.108 616.609 484.404 617.846 481.68C618.294 480.695 619.684 477.616 620.935 474.838C622.185 472.06 623.839 468.394 624.609 466.692C625.38 464.989 626.307 462.937 626.67 462.13C632.766 448.59 640.963 430.425 641.888 428.407C644.405 422.913 663.923 379.687 666.164 374.644C667.199 372.314 668.413 369.602 668.863 368.616C669.312 367.63 673.817 357.66 678.873 346.459C683.929 335.259 690.526 320.67 693.532 314.039C696.538 307.408 699.981 299.784 701.183 297.096C703.323 292.311 707.63 282.755 714.108 268.422C715.89 264.48 718.478 258.731 719.859 255.646L722.37 250.038L770.384 250.026C808.674 250.016 818.363 250.095 818.226 250.42C818.131 250.644 815.718 255.959 812.864 262.232C808.718 271.342 803.283 283.375 798.293 294.489C798.052 295.027 796.728 297.959 795.352 301.006C793.975 304.052 792.586 307.132 792.265 307.848C791.944 308.565 789.921 313.037 787.77 317.786C785.619 322.535 782.141 330.233 780.04 334.893C777.94 339.552 774.861 346.37 773.197 350.044C766.169 365.565 762.296 374.153 761.22 376.599C760.59 378.033 759.633 380.159 759.094 381.324C758.554 382.489 754.343 391.799 749.736 402.014C745.128 412.229 738.204 427.551 734.349 436.064C727.537 451.104 724.537 457.757 718.628 470.928C717.06 474.422 715.374 478.161 714.88 479.237C713.952 481.261 713.682 481.857 707.449 495.691C703.67 504.077 692.735 528.267 685.797 543.589C683.728 548.159 681.82 552.411 681.557 553.038C681.294 553.665 679.615 557.404 677.826 561.347C676.038 565.289 673.912 569.981 673.103 571.773C672.294 573.565 671.292 575.765 670.877 576.661C670.462 577.557 667.083 585.035 663.369 593.278C659.655 601.522 655.555 610.613 654.259 613.48C647.178 629.139 645.637 632.642 645.637 633.075C645.637 633.337 648.407 639.666 651.793 647.139C657.327 659.355 662.941 671.778 669.489 686.304C670.741 689.081 672.133 692.161 672.582 693.146C675.913 700.456 679.904 709.3 681.479 712.862C682.511 715.193 686.144 723.257 689.553 730.782C702.248 758.805 710.349 776.74 717.148 791.874C722.736 804.312 730.335 821.129 736.571 834.858C738.152 838.339 739.371 841.308 739.279 841.457C739.073 841.789 644.299 841.809 643.84 841.477ZM227.267 841.3C227.267 841.243 227.545 840.619 227.886 839.914C228.227 839.208 229.488 836.431 230.69 833.743C231.892 831.055 233.519 827.483 234.307 825.805C235.094 824.127 235.738 822.693 235.738 822.62C235.738 822.546 236.895 819.96 238.309 816.873C241.409 810.106 241.742 809.37 246.007 799.857C247.855 795.735 250.458 789.943 251.793 786.986C259.001 771.016 271.105 744.227 271.816 742.673C272.266 741.687 274.317 737.142 276.374 732.572C278.43 728.002 280.411 723.606 280.776 722.804C281.141 722.001 282.829 718.262 284.527 714.495C289.125 704.298 294.307 692.825 302.117 675.551C305.966 667.039 310.436 657.141 312.049 653.557C315.675 645.506 319.207 637.709 320.662 634.55L321.762 632.16L319.768 627.708C318.672 625.259 316.709 620.909 315.407 618.042C314.104 615.174 311.318 609.016 309.216 604.357C307.114 599.697 304.398 593.685 303.18 590.997C297.513 578.486 285.078 550.936 281.118 542.122C278.703 536.746 276.394 531.614 275.988 530.718C275.582 529.822 273.527 525.277 271.423 520.617C269.318 515.958 266.898 510.606 266.043 508.724C265.189 506.843 264.194 504.643 263.832 503.837C263.155 502.331 256.265 487.071 243.969 459.849C240.123 451.337 233.342 436.308 228.9 426.452C224.457 416.595 216.977 400.026 212.278 389.632C207.578 379.238 201.315 365.382 198.359 358.841C195.403 352.3 192.617 346.142 192.168 345.156C191.719 344.17 190.505 341.458 189.471 339.128C187.34 334.33 183.732 326.343 175.708 308.663C172.658 301.942 168.879 293.585 167.31 290.09C160.336 274.56 156.923 266.991 156.144 265.327C155.683 264.341 154.328 261.336 153.132 258.647C151.937 255.959 150.602 253.043 150.167 252.167C149.731 251.291 149.43 250.518 149.498 250.45C149.633 250.316 245.263 250.285 245.347 250.419C245.431 250.555 259.738 282.284 262.794 289.112C264.358 292.607 266.075 296.419 266.61 297.584C268.537 301.781 269.394 303.665 270.831 306.87C271.635 308.662 273.948 313.794 275.971 318.274C277.994 322.755 283.057 333.972 287.223 343.201C291.389 352.43 295.864 362.327 297.168 365.194C298.471 368.062 300.487 372.534 301.647 375.132C302.807 377.731 305.551 383.816 307.744 388.654C309.937 393.493 313.017 400.311 314.588 403.806C318.36 412.196 325.453 427.908 331.208 440.625C333.762 446.27 336.77 452.941 337.89 455.45C339.011 457.959 340.365 460.965 340.901 462.13C342.019 464.565 342.629 465.912 344.662 470.439C345.466 472.231 346.561 474.65 347.095 475.815C347.628 476.98 349.054 480.132 350.265 482.82C351.475 485.508 353.169 489.247 354.029 491.129C355.404 494.135 358.282 500.525 367.131 520.218C368.402 523.046 369.567 525.317 369.72 525.266C370.019 525.166 370.239 524.688 381.708 499.275C385.873 490.046 390.309 480.222 391.566 477.444C394.798 470.301 395.223 469.359 397.517 464.248C398.643 461.739 400.035 458.66 400.61 457.405C401.185 456.151 402.908 452.339 404.439 448.934C409.055 438.669 410.083 436.39 415.755 423.844C418.753 417.214 422.162 409.663 423.33 407.064C425.611 401.99 429.81 392.718 431.15 389.795C431.603 388.809 432.889 385.95 434.01 383.441C435.131 380.932 436.486 377.926 437.021 376.762C438.573 373.385 439.241 371.903 440.621 368.779C441.333 367.166 444.408 360.348 447.454 353.627C450.499 346.907 455.299 336.277 458.121 330.004C460.942 323.732 464.185 316.572 465.328 314.094C466.471 311.615 467.406 309.536 467.406 309.474C467.406 309.412 467.937 308.215 468.587 306.813C469.236 305.411 470.684 302.211 471.804 299.702C472.923 297.193 477.39 287.296 481.729 277.708C486.069 268.121 490.656 257.967 491.923 255.144L494.228 250.012H542.111C587.56 250.012 589.987 250.041 589.832 250.583C589.703 251.032 580.085 272.392 562.798 310.617C562.433 311.424 560.999 314.576 559.611 317.623C558.224 320.669 555.805 326.021 554.236 329.516C551.422 335.786 538.027 365.471 518.655 408.367C508.94 429.882 505.862 436.703 499.911 449.911C498.296 453.495 495.249 460.24 493.139 464.899C491.029 469.559 487.584 477.183 485.484 481.843C483.384 486.502 480.966 491.854 480.11 493.736C479.254 495.617 476.543 501.629 474.085 507.095C471.628 512.561 468.917 518.572 468.062 520.454C464.026 529.329 442.868 576.197 440.041 582.525C439.317 584.146 429.344 606.211 426.344 612.828C420.887 624.867 403.911 662.483 402.008 666.753C400.85 669.352 399.568 672.211 399.159 673.107C398.242 675.119 397.704 676.308 394.737 682.882C393.443 685.749 391.319 690.441 390.016 693.309C388.713 696.176 385.927 702.334 383.826 706.994C381.725 711.653 378.61 718.544 376.905 722.308C375.2 726.071 372.817 731.35 371.611 734.038C367.423 743.372 353.09 775.152 348.392 785.519C345.794 791.254 339.176 805.917 333.686 818.103C328.196 830.289 323.581 840.479 323.429 840.748C323.187 841.179 317.429 841.247 275.21 841.319C248.841 841.365 227.267 841.357 227.267 841.3ZM323.391 315.75C323.393 315.526 324.915 313.788 326.774 311.887C328.632 309.987 330.37 308.081 330.635 307.651C334.137 301.988 335.755 299.161 336.089 298.123C336.311 297.434 336.695 296.481 336.943 296.005C337.191 295.53 337.395 294.88 337.396 294.562C337.397 294.244 337.692 293.15 338.05 292.13C338.408 291.11 338.704 289.684 338.707 288.961C338.709 288.238 338.922 286.754 339.179 285.663C339.622 283.784 339.618 277.467 339.173 276.034C339.081 275.74 338.878 274.025 338.722 272.223C338.542 270.156 338.245 268.672 337.918 268.204C337.632 267.796 337.398 267.125 337.398 266.713C337.398 266.3 337.105 265.128 336.747 264.108C336.388 263.089 336.095 261.94 336.095 261.556C336.095 261.171 335.659 259.993 335.126 258.938C334.593 257.882 334.072 256.629 333.967 256.154C333.862 255.679 333.492 254.731 333.144 254.049C332.796 253.366 332.511 252.637 332.511 252.428C332.511 252.219 332.299 251.871 332.039 251.656C331.779 251.44 331.394 250.726 331.183 250.068C330.972 249.411 330.616 248.652 330.391 248.384C330.167 248.115 329.442 246.869 328.78 245.614C328.118 244.36 327.184 242.717 326.704 241.964C326.224 241.211 325.191 239.561 324.409 238.298C323.627 237.035 322.85 236.002 322.682 236.002C322.514 236.002 322.151 235.46 321.874 234.798C321.597 234.136 320.798 232.751 320.099 231.721C319.399 230.69 318.826 229.74 318.826 229.61C318.826 229.48 318.621 229.142 318.37 228.859C317.963 228.401 317.201 227.049 314.731 222.407C314.329 221.65 313.692 220.64 313.317 220.164C312.942 219.687 312.635 219.163 312.635 219C312.635 218.836 312.148 217.646 311.552 216.355C310.957 215.064 310.274 213.495 310.034 212.868C309.795 212.241 309.26 211.266 308.845 210.702C308.431 210.138 307.945 209.112 307.765 208.421C307.354 206.841 305.701 202.062 305.415 201.624C305.297 201.443 305.092 200.719 304.96 200.014C304.827 199.308 304.461 198.283 304.146 197.735C303.831 197.187 303.476 196.079 303.356 195.273C303.236 194.466 302.865 193.073 302.531 192.177C301.419 189.19 299.929 177.098 299.926 171.023C299.921 163.343 302.588 148.319 304.289 146.44C304.578 146.12 304.815 145.688 304.815 145.48C304.815 144.233 307.703 137.935 309.597 135.052C310.372 133.872 311.006 132.777 311.006 132.618C311.006 132.308 312.959 129.414 313.377 129.104C313.516 129.001 314.103 128.183 314.68 127.287C316.062 125.142 323.182 117.225 326.646 113.98C329.164 111.621 336.196 105.846 337.561 105.016C338.278 104.58 339.671 103.62 340.657 102.883C341.642 102.147 343.402 100.969 344.567 100.267C345.732 99.5644 346.831 98.811 347.01 98.5927C347.19 98.3744 347.849 97.967 348.477 97.6874C349.104 97.4078 350.204 96.8114 350.92 96.3621C351.637 95.9128 352.728 95.317 353.344 95.038C353.959 94.7591 354.926 94.1776 355.492 93.746C356.058 93.3143 356.735 92.9612 356.995 92.9612C357.256 92.9612 357.609 92.8286 357.779 92.6665C358.389 92.0866 362.553 90.0287 363.117 90.0287C363.434 90.0287 364.338 89.5915 365.127 89.0571C365.915 88.5227 366.753 88.0829 366.988 88.0796C367.452 88.0732 370.393 86.8066 372.327 85.7805C372.99 85.4289 373.851 85.1412 374.241 85.1412C374.854 85.1412 376.539 84.4698 381.327 82.317C382.413 81.8288 383.341 81.9148 383.341 82.5036C383.341 82.6771 382.3 83.7447 381.028 84.8761C373.781 91.3206 364.927 101.069 362.81 104.933C362.539 105.427 361.669 106.706 360.875 107.774C360.081 108.843 359 110.529 358.472 111.521C357.944 112.514 357.239 113.675 356.904 114.103C356.57 114.53 356.297 115.134 356.297 115.444C356.297 115.754 356.024 116.357 355.69 116.785C354.787 117.942 351.735 125.4 351.735 126.45C351.735 126.952 351.445 127.93 351.091 128.625C350.229 130.315 349.271 134.333 348.639 138.904C348.354 140.965 347.981 143.445 347.81 144.416C347.401 146.735 347.414 155.804 347.829 158.291C348.009 159.366 348.388 162.442 348.671 165.127C348.954 167.811 349.318 170.256 349.48 170.558C349.642 170.861 349.919 172.122 350.094 173.36C350.27 174.598 350.708 176.259 351.067 177.052C351.427 177.844 351.724 178.959 351.728 179.529C351.732 180.099 352.093 181.712 352.53 183.113C352.967 184.514 353.724 186.98 354.212 188.593C354.7 190.206 355.354 191.892 355.666 192.34C355.977 192.788 356.326 193.807 356.441 194.605C356.557 195.402 356.792 196.225 356.964 196.432C357.136 196.639 357.556 197.6 357.897 198.566C359.208 202.283 359.606 203.218 360.2 203.973C360.537 204.402 360.916 205.222 361.042 205.796C361.168 206.37 361.545 207.351 361.879 207.976C362.214 208.6 362.487 209.232 362.487 209.38C362.487 209.677 363.98 213.067 364.454 213.845C364.932 214.633 366.883 218.719 367.876 221.014C368.38 222.179 369.043 223.425 369.35 223.783C369.656 224.142 370.012 224.801 370.141 225.249C370.269 225.698 370.643 226.532 370.971 227.105C371.299 227.677 371.95 229.206 372.418 230.503C372.885 231.8 373.608 233.531 374.024 234.35C376.206 238.65 377.296 241.603 377.644 244.16C377.753 244.96 378.188 246.421 378.611 247.406C379.034 248.392 379.782 250.95 380.274 253.09C381.126 256.801 381.167 257.365 381.146 265.146L381.123 273.31L380.094 276.405C379.527 278.108 378.78 280.097 378.433 280.825C378.086 281.554 377.802 282.424 377.802 282.759C377.802 283.521 376.607 286.061 375.709 287.208C375.337 287.683 374.593 288.845 374.055 289.791C373.16 291.363 367.032 298.222 366.245 298.531C365.807 298.703 363.344 300.657 361.599 302.218C360.842 302.895 359.943 303.449 359.603 303.449C359.262 303.449 358.782 303.692 358.536 303.988C358.291 304.285 357.723 304.691 357.275 304.892C356.827 305.093 355.608 305.767 354.566 306.39C351.515 308.214 351.281 308.327 350.557 308.332C350.178 308.335 349.519 308.61 349.091 308.943C348.664 309.277 346.775 310.023 344.893 310.601C343.011 311.18 340.736 312.007 339.838 312.439C338.939 312.871 337.808 313.225 337.325 313.225C336.841 313.225 335.697 313.519 334.783 313.88C333.868 314.24 331.831 314.758 330.256 315.03C328.681 315.301 326.896 315.666 326.288 315.84C324.755 316.28 323.387 316.237 323.391 315.75ZM389.452 307.934C389.379 307.713 390.514 306.357 391.976 304.92C395.936 301.031 398.68 297.785 399.958 295.479C400.586 294.347 401.698 292.342 402.43 291.023C403.162 289.703 404.091 287.378 404.495 285.854C404.9 284.331 405.469 282.352 405.76 281.456C406.452 279.328 406.717 269.213 406.138 266.994C405.923 266.167 405.559 264.097 405.33 262.394C404.838 258.74 403.563 253.703 402.607 251.642C402.234 250.835 401.924 249.805 401.92 249.352C401.917 248.899 401.712 248.239 401.466 247.886C400.905 247.082 399.467 243.449 399.001 241.661C398.808 240.92 398.441 240.14 398.185 239.927C397.929 239.715 397.618 239.079 397.494 238.513C397.369 237.948 396.92 236.935 396.495 236.261C396.07 235.588 395.722 234.781 395.722 234.467C395.722 234.153 395.442 233.161 395.1 232.261C393.399 227.789 392.806 225.925 392.614 224.435C392.498 223.539 392.251 222.621 392.064 222.394C391.878 222.168 391.653 220.335 391.565 218.322C391.262 211.454 393.264 205.985 397.836 201.192C399.268 199.691 400.907 198.222 401.479 197.927C408.074 194.528 410.727 193.357 412.235 193.177C413.164 193.066 414.557 192.7 415.331 192.364C416.105 192.028 417.655 191.65 418.775 191.526C421.233 191.252 421.428 191.674 419.526 193.155C418.836 193.693 418.012 194.572 417.696 195.11C417.38 195.648 416.715 196.609 416.218 197.247C415.722 197.885 415.211 198.838 415.083 199.365C414.955 199.892 414.505 200.989 414.085 201.803C413.545 202.848 413.206 204.325 412.933 206.824C412.598 209.891 412.622 210.849 413.115 213.979C413.643 217.331 414.047 218.634 415.664 222.203C416.001 222.947 416.412 223.974 416.577 224.484C417.499 227.336 418.183 228.935 418.757 229.578C419.112 229.975 419.894 231.253 420.495 232.418C421.096 233.583 421.992 235.269 422.486 236.165C422.98 237.061 423.643 238.307 423.959 238.934C424.274 239.562 424.721 240.305 424.95 240.586C425.395 241.132 426.509 244.145 427.03 246.215C427.203 246.905 427.708 248.15 428.151 248.982C428.595 249.815 428.957 250.955 428.957 251.515C428.957 252.076 429.275 253.47 429.663 254.613C430.299 256.485 430.372 257.409 430.396 263.861C430.419 269.821 430.332 271.276 429.876 272.495C429.575 273.302 429.164 274.793 428.962 275.81C428.761 276.827 428.389 277.83 428.137 278.039C427.885 278.248 427.392 279.185 427.042 280.121C426.021 282.85 424.779 284.739 421.366 288.751C418.822 291.742 412.233 297.681 410.705 298.36C410.254 298.561 409.52 298.986 409.076 299.306C407.262 300.61 405.763 301.494 403.809 302.413C402.677 302.946 400.029 304.203 397.924 305.207C395.82 306.212 393.982 307.034 393.839 307.034C393.696 307.034 393.004 307.327 392.301 307.685C390.852 308.424 389.65 308.529 389.452 307.934Z"/>
</mask>
<path d="M190.529 894.798L189.47 894.492V885.867V877.242H175.163C163.954 877.242 159.986 877.129 156.835 876.721C146.363 875.366 136.9 870.793 129.517 863.52C127.176 861.215 123 855.999 123 855.381C123 855.204 270.588 855.085 489.563 855.085C706.844 855.085 856.125 855.205 856.125 855.379C856.125 855.889 853.119 859.711 850.749 862.214C845.419 867.844 838.193 872.336 830.806 874.614C824.522 876.551 822.927 876.692 805.702 876.833L789.981 876.961V885.345C789.981 894.217 789.932 894.511 788.449 894.511C788.037 894.511 787.7 894.658 787.7 894.837C787.7 895.271 192.031 895.232 190.529 894.798ZM643.84 841.477C643.531 841.253 641.947 837.848 635.697 823.968C634.326 820.922 632.274 816.376 631.138 813.867C630.003 811.358 626.331 803.221 622.978 795.784C614.482 776.936 611.76 770.906 604.589 755.054C601.143 747.438 598.196 740.877 598.04 740.473C597.883 740.07 597.633 739.74 597.484 739.74C597.335 739.74 595.947 742.563 594.399 746.013C586.915 762.703 583.742 769.746 582.768 771.835C582.182 773.089 581.151 775.362 580.475 776.885C579.799 778.409 576.797 785.08 573.803 791.711C570.809 798.341 567.106 806.552 565.575 809.957C564.044 813.362 561.949 817.981 560.919 820.221C559.889 822.461 557.316 828.143 555.202 832.847L551.358 841.4H503.517C477.204 841.4 455.676 841.277 455.676 841.126C455.676 840.976 457.524 836.76 459.784 831.759C462.043 826.757 465.573 818.926 467.628 814.356C472.374 803.804 473.718 800.834 475.274 797.462C475.964 795.966 476.529 794.695 476.529 794.637C476.529 794.58 477.494 792.432 478.672 789.864C479.851 787.295 481.081 784.608 481.404 783.891C481.728 783.174 483.051 780.241 484.345 777.374C485.638 774.507 487.028 771.428 487.434 770.532C492.704 758.88 500.381 741.842 501.455 739.414C502.207 737.712 505.353 730.747 508.445 723.937C514.897 709.727 514.128 711.426 518.979 700.64C523.37 690.877 541.134 651.574 545.93 641.013C547.761 636.981 549.262 633.352 549.265 632.948C549.269 632.545 549.402 632.215 549.561 632.215C549.72 632.215 550.2 631.446 550.627 630.505C551.054 629.564 552.591 626.185 554.044 622.997C555.496 619.809 556.684 617.147 556.684 617.083C556.684 617.018 557.252 615.741 557.946 614.245C560.292 609.187 565.582 597.511 569.881 587.902C571.365 584.587 574.808 576.962 577.532 570.959C580.257 564.955 583.664 557.404 585.103 554.178C586.542 550.952 588.417 546.774 589.269 544.892C590.121 543.01 591.114 540.811 591.475 540.004C591.836 539.198 593.263 536.046 594.647 532.999C596.03 529.953 598.105 525.348 599.258 522.766C600.41 520.185 602.136 516.373 603.093 514.295C604.05 512.217 605.823 508.317 607.033 505.629C609.519 500.108 616.609 484.404 617.846 481.68C618.294 480.695 619.684 477.616 620.935 474.838C622.185 472.06 623.839 468.394 624.609 466.692C625.38 464.989 626.307 462.937 626.67 462.13C632.766 448.59 640.963 430.425 641.888 428.407C644.405 422.913 663.923 379.687 666.164 374.644C667.199 372.314 668.413 369.602 668.863 368.616C669.312 367.63 673.817 357.66 678.873 346.459C683.929 335.259 690.526 320.67 693.532 314.039C696.538 307.408 699.981 299.784 701.183 297.096C703.323 292.311 707.63 282.755 714.108 268.422C715.89 264.48 718.478 258.731 719.859 255.646L722.37 250.038L770.384 250.026C808.674 250.016 818.363 250.095 818.226 250.42C818.131 250.644 815.718 255.959 812.864 262.232C808.718 271.342 803.283 283.375 798.293 294.489C798.052 295.027 796.728 297.959 795.352 301.006C793.975 304.052 792.586 307.132 792.265 307.848C791.944 308.565 789.921 313.037 787.77 317.786C785.619 322.535 782.141 330.233 780.04 334.893C777.94 339.552 774.861 346.37 773.197 350.044C766.169 365.565 762.296 374.153 761.22 376.599C760.59 378.033 759.633 380.159 759.094 381.324C758.554 382.489 754.343 391.799 749.736 402.014C745.128 412.229 738.204 427.551 734.349 436.064C727.537 451.104 724.537 457.757 718.628 470.928C717.06 474.422 715.374 478.161 714.88 479.237C713.952 481.261 713.682 481.857 707.449 495.691C703.67 504.077 692.735 528.267 685.797 543.589C683.728 548.159 681.82 552.411 681.557 553.038C681.294 553.665 679.615 557.404 677.826 561.347C676.038 565.289 673.912 569.981 673.103 571.773C672.294 573.565 671.292 575.765 670.877 576.661C670.462 577.557 667.083 585.035 663.369 593.278C659.655 601.522 655.555 610.613 654.259 613.48C647.178 629.139 645.637 632.642 645.637 633.075C645.637 633.337 648.407 639.666 651.793 647.139C657.327 659.355 662.941 671.778 669.489 686.304C670.741 689.081 672.133 692.161 672.582 693.146C675.913 700.456 679.904 709.3 681.479 712.862C682.511 715.193 686.144 723.257 689.553 730.782C702.248 758.805 710.349 776.74 717.148 791.874C722.736 804.312 730.335 821.129 736.571 834.858C738.152 838.339 739.371 841.308 739.279 841.457C739.073 841.789 644.299 841.809 643.84 841.477ZM227.267 841.3C227.267 841.243 227.545 840.619 227.886 839.914C228.227 839.208 229.488 836.431 230.69 833.743C231.892 831.055 233.519 827.483 234.307 825.805C235.094 824.127 235.738 822.693 235.738 822.62C235.738 822.546 236.895 819.96 238.309 816.873C241.409 810.106 241.742 809.37 246.007 799.857C247.855 795.735 250.458 789.943 251.793 786.986C259.001 771.016 271.105 744.227 271.816 742.673C272.266 741.687 274.317 737.142 276.374 732.572C278.43 728.002 280.411 723.606 280.776 722.804C281.141 722.001 282.829 718.262 284.527 714.495C289.125 704.298 294.307 692.825 302.117 675.551C305.966 667.039 310.436 657.141 312.049 653.557C315.675 645.506 319.207 637.709 320.662 634.55L321.762 632.16L319.768 627.708C318.672 625.259 316.709 620.909 315.407 618.042C314.104 615.174 311.318 609.016 309.216 604.357C307.114 599.697 304.398 593.685 303.18 590.997C297.513 578.486 285.078 550.936 281.118 542.122C278.703 536.746 276.394 531.614 275.988 530.718C275.582 529.822 273.527 525.277 271.423 520.617C269.318 515.958 266.898 510.606 266.043 508.724C265.189 506.843 264.194 504.643 263.832 503.837C263.155 502.331 256.265 487.071 243.969 459.849C240.123 451.337 233.342 436.308 228.9 426.452C224.457 416.595 216.977 400.026 212.278 389.632C207.578 379.238 201.315 365.382 198.359 358.841C195.403 352.3 192.617 346.142 192.168 345.156C191.719 344.17 190.505 341.458 189.471 339.128C187.34 334.33 183.732 326.343 175.708 308.663C172.658 301.942 168.879 293.585 167.31 290.09C160.336 274.56 156.923 266.991 156.144 265.327C155.683 264.341 154.328 261.336 153.132 258.647C151.937 255.959 150.602 253.043 150.167 252.167C149.731 251.291 149.43 250.518 149.498 250.45C149.633 250.316 245.263 250.285 245.347 250.419C245.431 250.555 259.738 282.284 262.794 289.112C264.358 292.607 266.075 296.419 266.61 297.584C268.537 301.781 269.394 303.665 270.831 306.87C271.635 308.662 273.948 313.794 275.971 318.274C277.994 322.755 283.057 333.972 287.223 343.201C291.389 352.43 295.864 362.327 297.168 365.194C298.471 368.062 300.487 372.534 301.647 375.132C302.807 377.731 305.551 383.816 307.744 388.654C309.937 393.493 313.017 400.311 314.588 403.806C318.36 412.196 325.453 427.908 331.208 440.625C333.762 446.27 336.77 452.941 337.89 455.45C339.011 457.959 340.365 460.965 340.901 462.13C342.019 464.565 342.629 465.912 344.662 470.439C345.466 472.231 346.561 474.65 347.095 475.815C347.628 476.98 349.054 480.132 350.265 482.82C351.475 485.508 353.169 489.247 354.029 491.129C355.404 494.135 358.282 500.525 367.131 520.218C368.402 523.046 369.567 525.317 369.72 525.266C370.019 525.166 370.239 524.688 381.708 499.275C385.873 490.046 390.309 480.222 391.566 477.444C394.798 470.301 395.223 469.359 397.517 464.248C398.643 461.739 400.035 458.66 400.61 457.405C401.185 456.151 402.908 452.339 404.439 448.934C409.055 438.669 410.083 436.39 415.755 423.844C418.753 417.214 422.162 409.663 423.33 407.064C425.611 401.99 429.81 392.718 431.15 389.795C431.603 388.809 432.889 385.95 434.01 383.441C435.131 380.932 436.486 377.926 437.021 376.762C438.573 373.385 439.241 371.903 440.621 368.779C441.333 367.166 444.408 360.348 447.454 353.627C450.499 346.907 455.299 336.277 458.121 330.004C460.942 323.732 464.185 316.572 465.328 314.094C466.471 311.615 467.406 309.536 467.406 309.474C467.406 309.412 467.937 308.215 468.587 306.813C469.236 305.411 470.684 302.211 471.804 299.702C472.923 297.193 477.39 287.296 481.729 277.708C486.069 268.121 490.656 257.967 491.923 255.144L494.228 250.012H542.111C587.56 250.012 589.987 250.041 589.832 250.583C589.703 251.032 580.085 272.392 562.798 310.617C562.433 311.424 560.999 314.576 559.611 317.623C558.224 320.669 555.805 326.021 554.236 329.516C551.422 335.786 538.027 365.471 518.655 408.367C508.94 429.882 505.862 436.703 499.911 449.911C498.296 453.495 495.249 460.24 493.139 464.899C491.029 469.559 487.584 477.183 485.484 481.843C483.384 486.502 480.966 491.854 480.11 493.736C479.254 495.617 476.543 501.629 474.085 507.095C471.628 512.561 468.917 518.572 468.062 520.454C464.026 529.329 442.868 576.197 440.041 582.525C439.317 584.146 429.344 606.211 426.344 612.828C420.887 624.867 403.911 662.483 402.008 666.753C400.85 669.352 399.568 672.211 399.159 673.107C398.242 675.119 397.704 676.308 394.737 682.882C393.443 685.749 391.319 690.441 390.016 693.309C388.713 696.176 385.927 702.334 383.826 706.994C381.725 711.653 378.61 718.544 376.905 722.308C375.2 726.071 372.817 731.35 371.611 734.038C367.423 743.372 353.09 775.152 348.392 785.519C345.794 791.254 339.176 805.917 333.686 818.103C328.196 830.289 323.581 840.479 323.429 840.748C323.187 841.179 317.429 841.247 275.21 841.319C248.841 841.365 227.267 841.357 227.267 841.3ZM323.391 315.75C323.393 315.526 324.915 313.788 326.774 311.887C328.632 309.987 330.37 308.081 330.635 307.651C334.137 301.988 335.755 299.161 336.089 298.123C336.311 297.434 336.695 296.481 336.943 296.005C337.191 295.53 337.395 294.88 337.396 294.562C337.397 294.244 337.692 293.15 338.05 292.13C338.408 291.11 338.704 289.684 338.707 288.961C338.709 288.238 338.922 286.754 339.179 285.663C339.622 283.784 339.618 277.467 339.173 276.034C339.081 275.74 338.878 274.025 338.722 272.223C338.542 270.156 338.245 268.672 337.918 268.204C337.632 267.796 337.398 267.125 337.398 266.713C337.398 266.3 337.105 265.128 336.747 264.108C336.388 263.089 336.095 261.94 336.095 261.556C336.095 261.171 335.659 259.993 335.126 258.938C334.593 257.882 334.072 256.629 333.967 256.154C333.862 255.679 333.492 254.731 333.144 254.049C332.796 253.366 332.511 252.637 332.511 252.428C332.511 252.219 332.299 251.871 332.039 251.656C331.779 251.44 331.394 250.726 331.183 250.068C330.972 249.411 330.616 248.652 330.391 248.384C330.167 248.115 329.442 246.869 328.78 245.614C328.118 244.36 327.184 242.717 326.704 241.964C326.224 241.211 325.191 239.561 324.409 238.298C323.627 237.035 322.85 236.002 322.682 236.002C322.514 236.002 322.151 235.46 321.874 234.798C321.597 234.136 320.798 232.751 320.099 231.721C319.399 230.69 318.826 229.74 318.826 229.61C318.826 229.48 318.621 229.142 318.37 228.859C317.963 228.401 317.201 227.049 314.731 222.407C314.329 221.65 313.692 220.64 313.317 220.164C312.942 219.687 312.635 219.163 312.635 219C312.635 218.836 312.148 217.646 311.552 216.355C310.957 215.064 310.274 213.495 310.034 212.868C309.795 212.241 309.26 211.266 308.845 210.702C308.431 210.138 307.945 209.112 307.765 208.421C307.354 206.841 305.701 202.062 305.415 201.624C305.297 201.443 305.092 200.719 304.96 200.014C304.827 199.308 304.461 198.283 304.146 197.735C303.831 197.187 303.476 196.079 303.356 195.273C303.236 194.466 302.865 193.073 302.531 192.177C301.419 189.19 299.929 177.098 299.926 171.023C299.921 163.343 302.588 148.319 304.289 146.44C304.578 146.12 304.815 145.688 304.815 145.48C304.815 144.233 307.703 137.935 309.597 135.052C310.372 133.872 311.006 132.777 311.006 132.618C311.006 132.308 312.959 129.414 313.377 129.104C313.516 129.001 314.103 128.183 314.68 127.287C316.062 125.142 323.182 117.225 326.646 113.98C329.164 111.621 336.196 105.846 337.561 105.016C338.278 104.58 339.671 103.62 340.657 102.883C341.642 102.147 343.402 100.969 344.567 100.267C345.732 99.5644 346.831 98.811 347.01 98.5927C347.19 98.3744 347.849 97.967 348.477 97.6874C349.104 97.4078 350.204 96.8114 350.92 96.3621C351.637 95.9128 352.728 95.317 353.344 95.038C353.959 94.7591 354.926 94.1776 355.492 93.746C356.058 93.3143 356.735 92.9612 356.995 92.9612C357.256 92.9612 357.609 92.8286 357.779 92.6665C358.389 92.0866 362.553 90.0287 363.117 90.0287C363.434 90.0287 364.338 89.5915 365.127 89.0571C365.915 88.5227 366.753 88.0829 366.988 88.0796C367.452 88.0732 370.393 86.8066 372.327 85.7805C372.99 85.4289 373.851 85.1412 374.241 85.1412C374.854 85.1412 376.539 84.4698 381.327 82.317C382.413 81.8288 383.341 81.9148 383.341 82.5036C383.341 82.6771 382.3 83.7447 381.028 84.8761C373.781 91.3206 364.927 101.069 362.81 104.933C362.539 105.427 361.669 106.706 360.875 107.774C360.081 108.843 359 110.529 358.472 111.521C357.944 112.514 357.239 113.675 356.904 114.103C356.57 114.53 356.297 115.134 356.297 115.444C356.297 115.754 356.024 116.357 355.69 116.785C354.787 117.942 351.735 125.4 351.735 126.45C351.735 126.952 351.445 127.93 351.091 128.625C350.229 130.315 349.271 134.333 348.639 138.904C348.354 140.965 347.981 143.445 347.81 144.416C347.401 146.735 347.414 155.804 347.829 158.291C348.009 159.366 348.388 162.442 348.671 165.127C348.954 167.811 349.318 170.256 349.48 170.558C349.642 170.861 349.919 172.122 350.094 173.36C350.27 174.598 350.708 176.259 351.067 177.052C351.427 177.844 351.724 178.959 351.728 179.529C351.732 180.099 352.093 181.712 352.53 183.113C352.967 184.514 353.724 186.98 354.212 188.593C354.7 190.206 355.354 191.892 355.666 192.34C355.977 192.788 356.326 193.807 356.441 194.605C356.557 195.402 356.792 196.225 356.964 196.432C357.136 196.639 357.556 197.6 357.897 198.566C359.208 202.283 359.606 203.218 360.2 203.973C360.537 204.402 360.916 205.222 361.042 205.796C361.168 206.37 361.545 207.351 361.879 207.976C362.214 208.6 362.487 209.232 362.487 209.38C362.487 209.677 363.98 213.067 364.454 213.845C364.932 214.633 366.883 218.719 367.876 221.014C368.38 222.179 369.043 223.425 369.35 223.783C369.656 224.142 370.012 224.801 370.141 225.249C370.269 225.698 370.643 226.532 370.971 227.105C371.299 227.677 371.95 229.206 372.418 230.503C372.885 231.8 373.608 233.531 374.024 234.35C376.206 238.65 377.296 241.603 377.644 244.16C377.753 244.96 378.188 246.421 378.611 247.406C379.034 248.392 379.782 250.95 380.274 253.09C381.126 256.801 381.167 257.365 381.146 265.146L381.123 273.31L380.094 276.405C379.527 278.108 378.78 280.097 378.433 280.825C378.086 281.554 377.802 282.424 377.802 282.759C377.802 283.521 376.607 286.061 375.709 287.208C375.337 287.683 374.593 288.845 374.055 289.791C373.16 291.363 367.032 298.222 366.245 298.531C365.807 298.703 363.344 300.657 361.599 302.218C360.842 302.895 359.943 303.449 359.603 303.449C359.262 303.449 358.782 303.692 358.536 303.988C358.291 304.285 357.723 304.691 357.275 304.892C356.827 305.093 355.608 305.767 354.566 306.39C351.515 308.214 351.281 308.327 350.557 308.332C350.178 308.335 349.519 308.61 349.091 308.943C348.664 309.277 346.775 310.023 344.893 310.601C343.011 311.18 340.736 312.007 339.838 312.439C338.939 312.871 337.808 313.225 337.325 313.225C336.841 313.225 335.697 313.519 334.783 313.88C333.868 314.24 331.831 314.758 330.256 315.03C328.681 315.301 326.896 315.666 326.288 315.84C324.755 316.28 323.387 316.237 323.391 315.75ZM389.452 307.934C389.379 307.713 390.514 306.357 391.976 304.92C395.936 301.031 398.68 297.785 399.958 295.479C400.586 294.347 401.698 292.342 402.43 291.023C403.162 289.703 404.091 287.378 404.495 285.854C404.9 284.331 405.469 282.352 405.76 281.456C406.452 279.328 406.717 269.213 406.138 266.994C405.923 266.167 405.559 264.097 405.33 262.394C404.838 258.74 403.563 253.703 402.607 251.642C402.234 250.835 401.924 249.805 401.92 249.352C401.917 248.899 401.712 248.239 401.466 247.886C400.905 247.082 399.467 243.449 399.001 241.661C398.808 240.92 398.441 240.14 398.185 239.927C397.929 239.715 397.618 239.079 397.494 238.513C397.369 237.948 396.92 236.935 396.495 236.261C396.07 235.588 395.722 234.781 395.722 234.467C395.722 234.153 395.442 233.161 395.1 232.261C393.399 227.789 392.806 225.925 392.614 224.435C392.498 223.539 392.251 222.621 392.064 222.394C391.878 222.168 391.653 220.335 391.565 218.322C391.262 211.454 393.264 205.985 397.836 201.192C399.268 199.691 400.907 198.222 401.479 197.927C408.074 194.528 410.727 193.357 412.235 193.177C413.164 193.066 414.557 192.7 415.331 192.364C416.105 192.028 417.655 191.65 418.775 191.526C421.233 191.252 421.428 191.674 419.526 193.155C418.836 193.693 418.012 194.572 417.696 195.11C417.38 195.648 416.715 196.609 416.218 197.247C415.722 197.885 415.211 198.838 415.083 199.365C414.955 199.892 414.505 200.989 414.085 201.803C413.545 202.848 413.206 204.325 412.933 206.824C412.598 209.891 412.622 210.849 413.115 213.979C413.643 217.331 414.047 218.634 415.664 222.203C416.001 222.947 416.412 223.974 416.577 224.484C417.499 227.336 418.183 228.935 418.757 229.578C419.112 229.975 419.894 231.253 420.495 232.418C421.096 233.583 421.992 235.269 422.486 236.165C422.98 237.061 423.643 238.307 423.959 238.934C424.274 239.562 424.721 240.305 424.95 240.586C425.395 241.132 426.509 244.145 427.03 246.215C427.203 246.905 427.708 248.15 428.151 248.982C428.595 249.815 428.957 250.955 428.957 251.515C428.957 252.076 429.275 253.47 429.663 254.613C430.299 256.485 430.372 257.409 430.396 263.861C430.419 269.821 430.332 271.276 429.876 272.495C429.575 273.302 429.164 274.793 428.962 275.81C428.761 276.827 428.389 277.83 428.137 278.039C427.885 278.248 427.392 279.185 427.042 280.121C426.021 282.85 424.779 284.739 421.366 288.751C418.822 291.742 412.233 297.681 410.705 298.36C410.254 298.561 409.52 298.986 409.076 299.306C407.262 300.61 405.763 301.494 403.809 302.413C402.677 302.946 400.029 304.203 397.924 305.207C395.82 306.212 393.982 307.034 393.839 307.034C393.696 307.034 393.004 307.327 392.301 307.685C390.852 308.424 389.65 308.529 389.452 307.934Z" fill="#F3B979" stroke="#674C2E" stroke-width="8" mask="url(#path-1-inside-1_80_27)"/>
<path d="M701.317 251.907L437.117 838.907H346.505L610.705 251.907H701.317Z" fill="#B7814A" stroke="#735431" stroke-width="4"/>
</svg>
